<?xml version="1.0" standalone="no"?>
<!DOCTYPE svg PUBLIC "-//W3C//DTD SVG 1.1//EN" "http://www.w3.org/Graphics/SVG/1.1/DTD/svg11.dtd">
<svg xmlns="http://www.w3.org/2000/svg" xmlns:xlink="http://www.w3.org/1999/xlink" viewBox="0 0 719.46 675.31" width="719.4600219726562" height="675.3099975585938"><defs><style>.cls-1{isolation:isolate;}.cls-2,.cls-21,.cls-33{fill:#d9e9ff;}.cls-3{fill:#add0ff;}.cls-4{fill:#9ec2ff;}.cls-25,.cls-39,.cls-40,.cls-42,.cls-46,.cls-47,.cls-5{fill:none;stroke-linecap:round;stroke-linejoin:round;}.cls-40,.cls-5{stroke:#9ec2ff;stroke-width:1.99px;}.cls-6{fill:#4432db;}.cls-7{fill:#4a39e3;}.cls-8{fill:#0026c8;}.cls-9{fill:#271c8c;}.cls-10{fill:url(#linear-gradient);}.cls-11{fill:#fff;}.cls-12{fill:url(#linear-gradient-2);}.cls-13{fill:url(#linear-gradient-3);}.cls-14{fill:#edf7ff;}.cls-15{fill:#cedff5;}.cls-16{fill:#bad4f5;}.cls-17{fill:url(#linear-gradient-4);}.cls-18{fill:#dbefff;}.cls-19{fill:#c9d5f5;}.cls-20{fill:#94a6eb;}.cls-21,.cls-43{mix-blend-mode:multiply;}.cls-22{fill:#2c1f9c;}.cls-23{fill:#5732db;}.cls-24{fill:url(#Dégradé_sans_nom_3);}.cls-25,.cls-39,.cls-46,.cls-47{stroke:#fff;}.cls-25{stroke-width:0.5px;}.cls-26{fill:#ffc2b0;}.cls-27{fill:#b238e5;}.cls-28{fill:#c6d2f2;}.cls-29{fill:#fbddd3;}.cls-30{fill:#de3e76;}.cls-31{fill:#f09a82;}.cls-32{fill:#467de4;}.cls-33{opacity:0.39;}.cls-34{fill:#7aa5f0;}.cls-35{fill:#6c5dfa;}.cls-36{fill:#3629a6;}.cls-37{fill:#5c95ff;}.cls-38{fill:#a6b6e0;}.cls-39{stroke-width:11.02px;}.cls-40{opacity:0.27;}.cls-41{fill:#fd87ff;}.cls-42{stroke:#3b2ad1;stroke-width:1.33px;}.cls-43,.cls-48{fill:#a8c4e5;}.cls-43{opacity:0.29;}.cls-44{fill:#ffdf53;}.cls-45{fill:#fdff5d;}.cls-46{stroke-width:9.27px;}.cls-47{stroke-width:0.86px;}</style><linearGradient id="linear-gradient" x1="1113.58" y1="213.88" x2="1262.35" y2="213.88" gradientTransform="matrix(-1, 0, 0, 1, 1465.72, 0)" gradientUnits="userSpaceOnUse"><stop offset="0.29" stop-color="#6959ff"/><stop offset="1" stop-color="#4f4ecc"/></linearGradient><linearGradient id="linear-gradient-2" x1="1217.23" y1="271.56" x2="1366" y2="271.56" xlink:href="#linear-gradient"/><linearGradient id="linear-gradient-3" x1="1316.95" y1="329.47" x2="1465.72" y2="329.47" xlink:href="#linear-gradient"/><linearGradient id="linear-gradient-4" x1="420.22" y1="232.79" x2="691.62" y2="232.79" gradientTransform="matrix(1, 0, 0, 1, 0, 0)" xlink:href="#linear-gradient"/><linearGradient id="Dégradé_sans_nom_3" x1="126.36" y1="436.54" x2="147.08" y2="400.65" gradientTransform="matrix(0.87, 0.03, -0.43, 0.71, 355.82, 131.59)" gradientUnits="userSpaceOnUse"><stop offset="0" stop-color="#4432db"/><stop offset="0.02" stop-color="#4832d8"/><stop offset="0.5" stop-color="#9839a4"/><stop offset="0.83" stop-color="#cb3c83"/><stop offset="1" stop-color="#de3e76"/></linearGradient></defs><g class="cls-1"><g id="image"><path class="cls-2" d="M143.88,535.93c-5.93-3.56-15.65-3.72-21.7-.36s-6.14,9-.21,12.53,15.55,3.72,21.71.43C150.45,544.91,149.82,539.49,143.88,535.93Z"/><path class="cls-3" d="M139.4,536.47a14.07,14.07,0,0,0-12.7-.21c-3.54,2-3.6,5.25-.12,7.34a14.19,14.19,0,0,0,12.7.25C143.24,541.73,142.87,538.56,139.4,536.47Z"/><path class="cls-2" d="M487.12,524.48c-15.26-9.16-40.24-9.57-55.8-.93s-15.79,23.06-.53,32.22,40,9.57,55.81,1.11C504,547.57,502.38,533.63,487.12,524.48Z"/><path class="cls-4" d="M477.6,526.43l-15-3.57c-14.93-7.33-36.91-7.41-51.53,0L398,525.16l0,15c.19,5.61,3.94,11.23,11.27,15.63,15.27,9.15,40,9.57,55.82,1.11,8.95-4.79,12.86-10.79,12.48-16.74Z"/><path class="cls-2" d="M303.57,545.61l-68-39.27c-2-1.16-1.77-3.22.57-4.57l66.4-38.34c2.34-1.35,5.91-1.5,7.93-.33l68,39.27c2,1.17,1.77,3.23-.57,4.57l-66.4,38.34C309.16,546.63,305.6,546.78,303.57,545.61Z"/><line class="cls-5" x1="328.44" y1="489.89" x2="423.82" y2="430.18"/><polygon class="cls-6" points="347.38 440.19 347.51 410.88 323.06 409.74 314.21 472 347.38 440.19"/><path class="cls-2" d="M303.52,352.28l74.66-43.1a5.76,5.76,0,0,0,0-10l-76-43.87a12.74,12.74,0,0,0-12.75,0l-76.55,44.2a5.76,5.76,0,0,0,0,10L287,352.28A16.5,16.5,0,0,0,303.52,352.28Z"/><path class="cls-7" d="M284.7,344l64.93-37.49a5,5,0,0,0,0-8.68l-69.12-39.91a5,5,0,0,0-5,0l-69.61,40.19a5,5,0,0,0,0,8.69L270.31,344A14.39,14.39,0,0,0,284.7,344Z"/><polygon class="cls-7" points="352.11 284.41 352.14 302.21 277.75 342.67 277.75 330.68 352.11 284.41"/><path class="cls-8" d="M276.77,345.87v-21.3l-73.4-40.16v18a5,5,0,0,0,2.51,4.34l63.31,36.55S273.23,346.12,276.77,345.87Z"/><path class="cls-9" d="M284.7,326l64.93-37.49a5,5,0,0,0,0-8.68l-66.09-38.15a11.08,11.08,0,0,0-11.08,0l-66.58,38.44a5,5,0,0,0,0,8.68L270.31,326A14.39,14.39,0,0,0,284.7,326Z"/><path class="cls-7" d="M284.7,310.45,349.63,273a5,5,0,0,0,0-8.69l-69.12-39.9a5,5,0,0,0-5,0l-69.61,40.19a5,5,0,0,0,0,8.69l64.43,37.2A14.39,14.39,0,0,0,284.7,310.45Z"/><polygon class="cls-7" points="352.11 250.9 352.14 268.69 277.75 309.15 277.75 297.17 352.11 250.9"/><path class="cls-8" d="M276.77,312.35V291.06l-73.4-40.16v18a5,5,0,0,0,2.51,4.35l63.31,36.55S273.23,312.61,276.77,312.35Z"/><path class="cls-9" d="M284.7,292.44,349.63,255a5,5,0,0,0,0-8.68l-66.09-38.16a11.08,11.08,0,0,0-11.08,0l-66.58,38.45a5,5,0,0,0,0,8.68l64.43,37.2A14.39,14.39,0,0,0,284.7,292.44Z"/><path class="cls-7" d="M284.7,273.83l64.93-37.49a5,5,0,0,0,0-8.69l-69.12-39.9a5,5,0,0,0-5,0l-69.61,40.19a5,5,0,0,0,0,8.68l64.43,37.21A14.39,14.39,0,0,0,284.7,273.83Z"/><polygon class="cls-7" points="352.11 214.28 352.14 232.07 277.75 272.53 277.75 260.55 352.11 214.28"/><path class="cls-8" d="M276.77,275.73V254.44l-73.4-40.16v18a5,5,0,0,0,2.51,4.34l63.31,36.56S273.23,276,276.77,275.73Z"/><path class="cls-10" d="M284.7,255.82l64.93-37.49a5,5,0,0,0,0-8.68l-66.09-38.16a11.08,11.08,0,0,0-11.08,0l-66.58,38.45a5,5,0,0,0,0,8.68l64.43,37.2A14.39,14.39,0,0,0,284.7,255.82Z"/><path class="cls-11" d="M335.51,236.76c0,1.24.88,1.74,1.95,1.12a4.32,4.32,0,0,0,2-3.37c0-1.24-.88-1.74-1.95-1.12A4.32,4.32,0,0,0,335.51,236.76Z"/><path class="cls-9" d="M343.36,231.5c0,1.23.87,1.73,1.95,1.11a4.32,4.32,0,0,0,1.95-3.37c0-1.24-.88-1.73-1.95-1.11A4.29,4.29,0,0,0,343.36,231.5Z"/><path class="cls-9" d="M328.94,241c0,1.24.87,1.74,1.95,1.12a4.31,4.31,0,0,0,1.95-3.37c0-1.24-.87-1.74-1.95-1.11A4.29,4.29,0,0,0,328.94,241Z"/><path class="cls-11" d="M342.09,267.82c0,1.24.87,1.74,2,1.11a4.29,4.29,0,0,0,1.95-3.36c0-1.24-.87-1.74-1.95-1.12A4.31,4.31,0,0,0,342.09,267.82Z"/><ellipse class="cls-9" cx="337.47" cy="270.91" rx="2.75" ry="1.59" transform="translate(-66.7 425.61) rotate(-59.7)"/><path class="cls-9" d="M328.94,276.26c0,1.24.87,1.74,1.95,1.12a4.31,4.31,0,0,0,1.95-3.37c0-1.24-.87-1.74-1.95-1.12A4.31,4.31,0,0,0,328.94,276.26Z"/><path class="cls-11" d="M342.09,303.1c0,1.24.87,1.74,2,1.11a4.29,4.29,0,0,0,1.95-3.36c0-1.24-.87-1.74-1.95-1.12A4.31,4.31,0,0,0,342.09,303.1Z"/><path class="cls-11" d="M335.51,307.32c0,1.24.88,1.74,1.95,1.11a4.3,4.3,0,0,0,2-3.36c0-1.24-.88-1.74-1.95-1.12A4.32,4.32,0,0,0,335.51,307.32Z"/><path class="cls-11" d="M328.94,311.54c0,1.24.87,1.74,1.95,1.11a4.27,4.27,0,0,0,1.95-3.36c0-1.24-.87-1.74-1.95-1.12A4.31,4.31,0,0,0,328.94,311.54Z"/><polygon class="cls-9" points="236.32 250.23 226.9 244.79 226.9 237.2 236.32 242.64 236.32 250.23"/><polygon class="cls-9" points="222.43 242.18 213 236.74 213 229.15 222.43 234.6 222.43 242.18"/><polygon class="cls-9" points="236.32 286.29 226.9 280.85 226.9 273.26 236.32 278.7 236.32 286.29"/><polygon class="cls-9" points="222.43 278.25 213 272.8 213 265.22 222.43 270.66 222.43 278.25"/><polygon class="cls-9" points="236.32 319.69 226.9 314.25 226.9 306.66 236.32 312.1 236.32 319.69"/><polygon class="cls-9" points="222.43 311.65 213 306.2 213 298.62 222.43 304.06 222.43 311.65"/><path class="cls-2" d="M199.88,410l74.66-43.11a5.76,5.76,0,0,0,0-10l-76-43.87a12.79,12.79,0,0,0-12.75,0l-76.55,44.2a5.76,5.76,0,0,0,0,10L183.34,410A16.56,16.56,0,0,0,199.88,410Z"/><path class="cls-7" d="M181.05,401.64,246,364.15a5,5,0,0,0,0-8.68l-69.13-39.91a5,5,0,0,0-5,0l-69.62,40.2a5,5,0,0,0,0,8.68l64.44,37.2A14.37,14.37,0,0,0,181.05,401.64Z"/><polygon class="cls-7" points="248.46 342.09 248.49 359.89 174.11 400.35 174.11 388.37 248.46 342.09"/><path class="cls-8" d="M173.13,403.55V382.26l-73.4-40.17v18a5,5,0,0,0,2.5,4.34L165.55,401S169.59,403.81,173.13,403.55Z"/><path class="cls-9" d="M181.05,383.64,246,346.15a5,5,0,0,0,0-8.68L179.9,299.31a11.1,11.1,0,0,0-11.09,0l-66.58,38.44a5,5,0,0,0,0,8.69l64.44,37.2A14.37,14.37,0,0,0,181.05,383.64Z"/><path class="cls-7" d="M181.05,368.13,246,330.64a5,5,0,0,0,0-8.68l-69.13-39.91a5,5,0,0,0-5,0l-69.62,40.2a5,5,0,0,0,0,8.68l64.44,37.2A14.37,14.37,0,0,0,181.05,368.13Z"/><polygon class="cls-7" points="248.46 308.58 248.49 326.38 174.11 366.84 174.11 354.85 248.46 308.58"/><path class="cls-8" d="M173.13,370V348.75l-73.4-40.17v18a5,5,0,0,0,2.5,4.34l63.32,36.56S169.59,370.29,173.13,370Z"/><path class="cls-9" d="M181.05,350.13,246,312.64a5,5,0,0,0,0-8.69L179.9,265.8a11.1,11.1,0,0,0-11.09,0l-66.58,38.44a5,5,0,0,0,0,8.68l64.44,37.21A14.37,14.37,0,0,0,181.05,350.13Z"/><path class="cls-7" d="M181.05,331.51,246,294a5,5,0,0,0,0-8.68l-69.13-39.91a5,5,0,0,0-5,0l-69.62,40.2a5,5,0,0,0,0,8.68l64.44,37.2A14.37,14.37,0,0,0,181.05,331.51Z"/><polygon class="cls-7" points="248.46 271.96 248.49 289.76 174.11 330.22 174.11 318.23 248.46 271.96"/><path class="cls-8" d="M173.13,333.42V312.13L99.73,272v18a5,5,0,0,0,2.5,4.34l63.32,36.56S169.59,333.67,173.13,333.42Z"/><path class="cls-12" d="M181.05,313.51,246,276a5,5,0,0,0,0-8.69L179.9,229.18a11.1,11.1,0,0,0-11.09,0l-66.58,38.44a5,5,0,0,0,0,8.68l64.44,37.21A14.42,14.42,0,0,0,181.05,313.51Z"/><path class="cls-9" d="M231.87,294.45c0,1.23.87,1.73,1.95,1.11a4.29,4.29,0,0,0,2-3.37c0-1.23-.87-1.73-2-1.11A4.29,4.29,0,0,0,231.87,294.45Z"/><path class="cls-11" d="M239.71,289.18c0,1.24.87,1.74,1.95,1.11a4.29,4.29,0,0,0,2-3.36c0-1.24-.87-1.74-2-1.12A4.33,4.33,0,0,0,239.71,289.18Z"/><path class="cls-9" d="M225.29,298.67c0,1.23.88,1.73,2,1.11a4.3,4.3,0,0,0,2-3.37c0-1.23-.88-1.73-1.95-1.11A4.3,4.3,0,0,0,225.29,298.67Z"/><path class="cls-11" d="M238.45,325.51c0,1.23.87,1.73,2,1.11a4.29,4.29,0,0,0,1.95-3.37c0-1.24-.87-1.73-1.95-1.11A4.29,4.29,0,0,0,238.45,325.51Z"/><path class="cls-9" d="M231.87,329.73c0,1.23.87,1.73,1.95,1.11a4.29,4.29,0,0,0,2-3.37c0-1.23-.87-1.73-2-1.11A4.29,4.29,0,0,0,231.87,329.73Z"/><path class="cls-11" d="M225.29,334c0,1.23.88,1.73,2,1.11a4.3,4.3,0,0,0,2-3.37c0-1.23-.88-1.73-1.95-1.11A4.3,4.3,0,0,0,225.29,334Z"/><path class="cls-11" d="M238.45,360.78c0,1.24.87,1.74,2,1.12a4.29,4.29,0,0,0,1.95-3.37c0-1.24-.87-1.73-1.95-1.11A4.29,4.29,0,0,0,238.45,360.78Z"/><path class="cls-9" d="M231.87,365c0,1.24.87,1.74,1.95,1.12a4.29,4.29,0,0,0,2-3.37c0-1.24-.87-1.73-2-1.11A4.29,4.29,0,0,0,231.87,365Z"/><path class="cls-11" d="M225.29,369.23c0,1.23.88,1.73,2,1.11a4.3,4.3,0,0,0,2-3.37c0-1.24-.88-1.73-1.95-1.11A4.3,4.3,0,0,0,225.29,369.23Z"/><polygon class="cls-9" points="132.68 307.91 123.25 302.47 123.25 294.88 132.68 300.33 132.68 307.91"/><polygon class="cls-9" points="118.78 299.87 109.36 294.43 109.36 286.84 118.78 292.28 118.78 299.87"/><polygon class="cls-9" points="132.68 343.98 123.25 338.54 123.25 330.95 132.68 336.39 132.68 343.98"/><polygon class="cls-9" points="118.78 335.93 109.36 330.49 109.36 322.9 118.78 328.34 118.78 335.93"/><polygon class="cls-9" points="132.68 377.38 123.25 371.94 123.25 364.35 132.68 369.79 132.68 377.38"/><polygon class="cls-9" points="118.78 369.33 109.36 363.89 109.36 356.3 118.78 361.74 118.78 369.33"/><path class="cls-2" d="M100.16,467.87l74.65-43.1a5.76,5.76,0,0,0,0-10l-76-43.86a12.72,12.72,0,0,0-12.74,0L9.53,415.11a5.77,5.77,0,0,0,0,10l74.09,42.77A16.56,16.56,0,0,0,100.16,467.87Z"/><path class="cls-7" d="M81.33,459.55l64.93-37.49a5,5,0,0,0,0-8.68L77.14,373.47a5,5,0,0,0-5,0L2.51,413.66a5,5,0,0,0,0,8.69l64.43,37.2A14.39,14.39,0,0,0,81.33,459.55Z"/><polygon class="cls-7" points="148.74 400 148.77 417.79 74.39 458.25 74.39 446.27 148.74 400"/><path class="cls-8" d="M73.4,461.45V440.16L0,400v18a5,5,0,0,0,2.51,4.35L65.83,458.9S69.86,461.71,73.4,461.45Z"/><path class="cls-9" d="M81.33,441.54l64.93-37.49a5,5,0,0,0,0-8.68L80.18,357.21a11.1,11.1,0,0,0-11.09,0L2.51,395.66a5,5,0,0,0,0,8.68l64.43,37.2A14.39,14.39,0,0,0,81.33,441.54Z"/><path class="cls-7" d="M81.33,426l64.93-37.49a5,5,0,0,0,0-8.69L77.14,340a5,5,0,0,0-5,0L2.51,380.15a5,5,0,0,0,0,8.68L66.94,426A14.44,14.44,0,0,0,81.33,426Z"/><polygon class="cls-7" points="148.74 366.49 148.77 384.28 74.39 424.74 74.39 412.76 148.74 366.49"/><path class="cls-8" d="M73.4,427.94V406.65L0,366.49v18a5,5,0,0,0,2.51,4.34l63.32,36.56S69.86,428.2,73.4,427.94Z"/><path class="cls-9" d="M81.33,408l64.93-37.49a5,5,0,0,0,0-8.68L80.18,323.7a11.1,11.1,0,0,0-11.09,0L2.51,362.14a5,5,0,0,0,0,8.69L66.94,408A14.39,14.39,0,0,0,81.33,408Z"/><path class="cls-7" d="M81.33,389.41l64.93-37.48a5,5,0,0,0,0-8.69L77.14,303.33a5,5,0,0,0-5,0L2.51,343.53a5,5,0,0,0,0,8.68l64.43,37.2A14.39,14.39,0,0,0,81.33,389.41Z"/><polygon class="cls-7" points="148.74 329.87 148.77 347.66 74.39 388.12 74.39 376.14 148.74 329.87"/><path class="cls-8" d="M73.4,391.32V370L0,329.87v18a5,5,0,0,0,2.51,4.34l63.32,36.56S69.86,391.58,73.4,391.32Z"/><path class="cls-13" d="M81.33,371.41l64.93-37.49a5,5,0,0,0,0-8.68L80.18,287.08a11.1,11.1,0,0,0-11.09,0L2.51,325.52a5,5,0,0,0,0,8.69l64.43,37.2A14.39,14.39,0,0,0,81.33,371.41Z"/><path class="cls-11" d="M132.15,352.35c0,1.24.87,1.74,1.95,1.11a4.29,4.29,0,0,0,2-3.36c0-1.24-.87-1.74-2-1.12A4.31,4.31,0,0,0,132.15,352.35Z"/><path class="cls-11" d="M140,347.08c0,1.24.87,1.74,1.95,1.12a4.31,4.31,0,0,0,1.95-3.37c0-1.24-.87-1.74-1.95-1.11A4.29,4.29,0,0,0,140,347.08Z"/><path class="cls-9" d="M125.57,356.57c0,1.24.87,1.74,2,1.11a4.29,4.29,0,0,0,2-3.36c0-1.24-.87-1.74-2-1.12A4.31,4.31,0,0,0,125.57,356.57Z"/><path class="cls-9" d="M138.72,383.41c0,1.24.88,1.73,1.95,1.11a4.3,4.3,0,0,0,2-3.36c0-1.24-.88-1.74-1.95-1.12A4.3,4.3,0,0,0,138.72,383.41Z"/><path class="cls-9" d="M132.15,387.63c0,1.24.87,1.74,1.95,1.11a4.29,4.29,0,0,0,2-3.36c0-1.24-.87-1.74-2-1.12A4.29,4.29,0,0,0,132.15,387.63Z"/><path class="cls-11" d="M125.57,391.85c0,1.24.87,1.74,2,1.11a4.29,4.29,0,0,0,2-3.36c0-1.24-.87-1.74-2-1.12A4.31,4.31,0,0,0,125.57,391.85Z"/><path class="cls-11" d="M138.72,418.69c0,1.24.88,1.73,1.95,1.11a4.3,4.3,0,0,0,2-3.37c0-1.23-.88-1.73-1.95-1.11A4.3,4.3,0,0,0,138.72,418.69Z"/><path class="cls-11" d="M132.15,422.91c0,1.24.87,1.73,1.95,1.11a4.29,4.29,0,0,0,2-3.36c0-1.24-.87-1.74-2-1.12A4.29,4.29,0,0,0,132.15,422.91Z"/><path class="cls-9" d="M125.57,427.13c0,1.24.87,1.74,2,1.11a4.29,4.29,0,0,0,2-3.36c0-1.24-.87-1.74-2-1.12A4.29,4.29,0,0,0,125.57,427.13Z"/><polygon class="cls-9" points="32.96 365.82 23.53 360.38 23.53 352.79 32.96 358.23 32.96 365.82"/><polygon class="cls-9" points="19.06 357.77 9.63 352.33 9.63 344.74 19.06 350.18 19.06 357.77"/><polygon class="cls-9" points="32.96 401.88 23.53 396.44 23.53 388.85 32.96 394.29 32.96 401.88"/><polygon class="cls-9" points="19.06 393.83 9.63 388.39 9.63 380.8 19.06 386.25 19.06 393.83"/><polygon class="cls-9" points="32.96 435.28 23.53 429.84 23.53 422.25 32.96 427.69 32.96 435.28"/><polygon class="cls-9" points="19.06 427.23 9.63 421.79 9.63 414.2 19.06 419.65 19.06 427.23"/><path class="cls-2" d="M717.42,418.05,456,267.1c-3-1.75-8.36-1.53-11.86.49L318.82,339.92a8.28,8.28,0,0,0-1.65,1.25l-19,11c-3.49,2-3.88,5.1-.85,6.85L558.75,510c3,1.75,8.37,1.53,11.86-.49L695.9,437.13a8.28,8.28,0,0,0,1.65-1.25l19-11C720.07,422.88,720.45,419.8,717.42,418.05Z"/><path class="cls-14" d="M692.83,234.52c3.38,1.95,5.65,6.43,5.07,10L671.62,406.92c-.57,3.58-3.78,4.9-7.16,2.95L415.76,266.28c-3.37-1.95-5.64-6.43-5.06-10L437,93.89c.58-3.58,3.78-4.91,7.16-3Z"/><path class="cls-15" d="M701.45,210.88,455,68.56h0l-.37-.21h0l-.66-.38-.25-.13-.26-.12-.26-.11-.26-.1-.27-.09-.29-.08h0l-.25,0-.12,0-.11,0h-.08l-.3,0h0l-.36,0h-.43l-.25,0-.14,0h0a3.94,3.94,0,0,0-.49.14h0l-.05,0a3.54,3.54,0,0,0-.59.27l-7.24,4.21a3.83,3.83,0,0,1,.58-.27l.23-.07.29-.08.35-.07h.14a4.12,4.12,0,0,1,.51,0H444a4.73,4.73,0,0,1,.53,0h0a4.21,4.21,0,0,1,.58.11l0,0c.19.05.39.11.58.18l.06,0c.2.08.41.17.61.27l.26.13.19.11,1.37.79h0L695.12,215.61a.94.94,0,0,0,.92,0l5.42-3.15A.91.91,0,0,0,701.45,210.88ZM452.52,69Z"/><path class="cls-16" d="M707.89,220.2a2.44,2.44,0,0,0,0-.27v-.08a1.15,1.15,0,0,0,0-.19l0-.28s0-.08,0-.13v-.05s0-.06,0-.09a2.56,2.56,0,0,0,0-.27,2.38,2.38,0,0,0,0-.26h0a5236748010816,5236748010816,0,0,0-.14-.54s0-.05,0-.08v-.05l0-.14a2,2,0,0,0-.08-.26c0-.07,0-.13-.07-.2v0l-.09-.25-.09-.23,0-.1v0a.69.69,0,0,1,0-.1,2.56,2.56,0,0,1-.11-.24l-.12-.24v0l0,0c0-.08-.09-.16-.13-.25l-.13-.23-.09-.15a.25.25,0,0,0,0-.07c-.07-.13-.15-.25-.23-.37l-.07-.12,0,0-.31-.45,0-.06,0,0c0-.05-.08-.11-.12-.15s-.13-.17-.19-.25l-.08-.09,0-.05a.27.27,0,0,1-.07-.08l-.2-.22-.16-.16,0,0,0,0-.22-.22-.23-.21h0l-.23-.2-.25-.2,0,0,0,0a1.33,1.33,0,0,0-.19-.14l-.24-.18-.08,0,0,0h0l-.14-.09-.26-.16-6-3.47-7.39,4.46,6.43,3.37.25.17.25.18.24.18.1.09.39.32h0l.37.36.05,0,.34.36.05.06c.1.12.21.24.31.37l.06.07c.1.12.2.25.29.38l.15.21.17.25.19.29.12.2a1,1,0,0,0,.1.17c.06.11.12.21.17.32a.2.2,0,0,1,0,.08c.08.14.15.29.22.44l0,0c.07.16.14.31.2.47l0,0,.18.46,0,.06c0,.16.1.31.14.46l0,.07c.05.16.09.31.13.46v.07c0,.16.07.31.1.47v.06c0,.16.05.31.07.47v.06a3.73,3.73,0,0,1,0,.47c0,.07,0,.15,0,.23v.27a2.71,2.71,0,0,1,0,.29,2.83,2.83,0,0,1,0,.29,1.71,1.71,0,0,1,0,.31l0,.23s0,.16-.07.43l-.65,4-1.19-.69-7.49,4.06,1.87,1.09.25.17a2.2,2.2,0,0,1,.25.17l.25.19.1.09.38.32h0l.37.36.05,0,.34.36.05.06.32.37.05.06.3.39c0,.07.09.14.14.2l.17.25c.07.1.13.2.19.3l.12.2.1.17.17.31.05.09c.07.14.15.29.21.44l0,0,.21.47v.05a4.37,4.37,0,0,1,.18.46l0,.06.15.46,0,.07.12.46,0,.07.09.46v.07c0,.16,0,.31.07.47v.06a1.21,1.21,0,0,1,0,.19L674.6,386.28c-.12.77-3.07,5.63-2.4,5.25l2.1-1.78L671.83,405c-.13.76-3.08,5.63-2.41,5.25l7.08-6a8.21,8.21,0,0,0,2.81-5l25.41-157c.13-.76.31-1.91.31-1.91l0-.23,0-.2v0a.15.15,0,0,1,0-.07c0-.09,0-.19,0-.29a1.62,1.62,0,0,0,0-.22v-.34c0-.09,0-.18,0-.27v-.08a1,1,0,0,1,0-.17l2.41-14.91c.12-.76.31-1.9.31-1.9l0-.24c0-.07,0-.14,0-.2h0v-.1a2.64,2.64,0,0,0,0-.28,1.69,1.69,0,0,1,0-.23v-.06A2.72,2.72,0,0,0,707.89,220.2Z"/><path class="cls-8" d="M695.58,215.6c3.38,2,5.64,6.43,5.06,10L674.37,388c-.58,3.58-3.78,4.9-7.16,2.95L418.51,247.36c-3.38-2-5.65-6.43-5.07-10L439.72,75c.58-3.58,3.78-4.9,7.15-2.95Z"/><path class="cls-17" d="M686.7,226.05c3.2,1.81,5.37,5.72,4.85,8.72L667.78,371c-.52,3-3.54,4-6.74,2.16L425.14,239.52c-3.2-1.81-5.37-5.71-4.84-8.72L444.06,94.57c.52-3,3.54-4,6.74-2.15Z"/><circle class="cls-18" cx="531.97" cy="646.34" r="28.98"/><circle class="cls-18" cx="628.75" cy="551.51" r="14.49"/><path class="cls-18" d="M426.54,6.32A6.33,6.33,0,1,1,420.22,0,6.32,6.32,0,0,1,426.54,6.32Z"/><path class="cls-8" d="M667,423.43l-.07-9.78-9.48,6.07-2-4.69L417.71,277.79c-2.86-1.65-8.55-1.44-11.85.47l-103,59.08V335.7l-15.64,7.6-2.2-.89.3,7.22a3.34,3.34,0,0,0,1.81,2.78l247.38,143.2c2.86,1.65,7.91,1.63,11.22-.28L664.27,427c1.81-1,2.73-2.34,2.74-3.61Z"/><path class="cls-19" d="M534.39,486,287,343.19c-2.87-1.66-2.5-4.57.8-6.48l118.54-68.44c3.3-1.9,8.35-2.11,11.21-.46L664.94,410.63c2.86,1.65,2.5,4.56-.8,6.47L545.6,485.54C542.3,487.45,537.25,487.66,534.39,486Z"/><path class="cls-20" d="M421.18,294.27a1.91,1.91,0,0,1-1.64-.19l-15-8.67c-.55-.31-.69-.73-.33-.94l9.94-5.75a1.9,1.9,0,0,1,1.64.19l15,8.67c.54.31.69.73.33.94Z"/><path class="cls-20" d="M438.6,320.15A1.91,1.91,0,0,1,437,320l-15-8.67c-.54-.31-.68-.73-.32-.94l9.95-5.75a1.92,1.92,0,0,1,1.63.19l15,8.67c.55.31.7.73.34.94Z"/><path class="cls-20" d="M429.79,330.89a1.88,1.88,0,0,1-1.63-.19l-15-8.67c-.53-.31-.69-.73-.33-.94l9.95-5.75a1.92,1.92,0,0,1,1.63.19l15,8.67c.54.31.69.74.34.94Z"/><path class="cls-20" d="M406,333a1.86,1.86,0,0,1-1.62-.19l-15-8.66c-.54-.31-.69-.74-.33-.94l9.95-5.75a1.88,1.88,0,0,1,1.63.19l15,8.66c.54.31.68.74.32.94Z"/><path class="cls-20" d="M364.63,326.93a1.85,1.85,0,0,1-1.63-.19l-15-8.66c-.54-.32-.69-.74-.33-.95l11.69-6.75a1.89,1.89,0,0,1,1.63.2l15,8.66c.54.31.68.74.33.94Z"/><path class="cls-20" d="M390.53,341.87a2.41,2.41,0,0,1-1.94-.36l-19.68-11.36c-.7-.4-1-.91-.63-1.12L380,322.29a2.42,2.42,0,0,1,1.94.36L401.57,334c.72.41,1,.91.64,1.12Z"/><path class="cls-20" d="M519.79,416.58a1.83,1.83,0,0,1-1.52-.26l-15-8.66c-.55-.31-.75-.71-.45-.88l4.32-2.5a1.9,1.9,0,0,1,1.53.26l15,8.66c.54.32.74.71.44.88Z"/><path class="cls-20" d="M539.86,428.46a1.86,1.86,0,0,1-1.53-.26l-15-8.66c-.55-.31-.75-.71-.46-.88l4.32-2.5a1.92,1.92,0,0,1,1.54.26l15,8.66c.55.32.74.71.44.88Z"/><path class="cls-20" d="M561.13,440.46a1.91,1.91,0,0,1-1.51-.27l-15-8.66c-.54-.31-.75-.71-.47-.87l4.17-2.41a1.89,1.89,0,0,1,1.5.27l15,8.66c.54.32.74.71.46.87Z"/><path class="cls-20" d="M548,423.88a1.89,1.89,0,0,1-1.5-.27l-15-8.66c-.54-.31-.76-.71-.47-.87l4.16-2.41a1.91,1.91,0,0,1,1.51.27l15,8.67c.54.31.75.7.47.86Z"/><path class="cls-20" d="M493.83,401.48a1.91,1.91,0,0,1-1.64-.19l-97.72-56.4c-.54-.31-.7-.74-.34-.94l11.69-6.75a1.92,1.92,0,0,1,1.63.19l97.73,56.4c.54.31.69.74.34.94Z"/><path class="cls-20" d="M387.85,338.15a.32.32,0,0,1-.16,0l-11.48-6.63c-.06,0-.1-.08-.07-.09l.72-.42a.25.25,0,0,1,.16,0l11.48,6.62c.06,0,.1.08.07.09Z"/><path class="cls-20" d="M358.41,319.9a.1.1,0,0,1-.09,0l-4.87-2.81s0,0,0-.05l.73-.42s.06,0,.09,0l4.87,2.82s0,0,0,.05Z"/><path class="cls-20" d="M426.55,344.83a1.88,1.88,0,0,1-1.63-.19l-15-8.67c-.53-.3-.69-.73-.33-.94l9.95-5.75a2,2,0,0,1,1.63.19l15,8.67c.55.31.69.74.33.94Z"/><path class="cls-20" d="M447.23,356.76a1.91,1.91,0,0,1-1.63-.18l-15-8.67c-.53-.31-.69-.74-.33-.94l9.95-5.75a1.91,1.91,0,0,1,1.64.19l15,8.67c.54.3.68.73.33.94Z"/><path class="cls-20" d="M467.91,368.7a1.92,1.92,0,0,1-1.63-.19l-15-8.67c-.54-.31-.68-.73-.33-.94l9.95-5.75a1.92,1.92,0,0,1,1.63.19l15,8.67c.54.31.68.73.33.94Z"/><path class="cls-20" d="M488.59,380.63a1.88,1.88,0,0,1-1.63-.19l-15-8.66c-.54-.32-.69-.74-.34-.95l10-5.75a1.92,1.92,0,0,1,1.63.19l15,8.67c.54.31.68.74.33.94Z"/><path class="cls-20" d="M509.27,392.57a2,2,0,0,1-1.64-.2l-15-8.66c-.53-.31-.68-.74-.32-.94l9.95-5.75a1.88,1.88,0,0,1,1.63.19l15,8.66c.54.31.69.74.34.95Z"/><path class="cls-20" d="M530,404.49a1.88,1.88,0,0,1-1.63-.19l-15-8.66c-.54-.32-.69-.74-.33-.95l9.95-5.75a1.94,1.94,0,0,1,1.64.19l15,8.67c.54.31.69.74.33.94Z"/><path class="cls-20" d="M576.52,431.37a1.89,1.89,0,0,1-1.63-.19L534,407.57c-.54-.31-.69-.74-.33-.94l10-5.75a1.85,1.85,0,0,1,1.63.19l40.92,23.61c.54.31.68.74.32.94Z"/><path class="cls-20" d="M450.37,342.75a1.86,1.86,0,0,1-1.62-.18l-15-8.67c-.54-.31-.69-.73-.33-.94l10-5.75a1.92,1.92,0,0,1,1.63.19l15,8.67c.54.31.68.73.32.93Z"/><path class="cls-20" d="M471.05,354.69a1.86,1.86,0,0,1-1.62-.19l-15-8.67c-.53-.31-.68-.73-.32-.94l9.95-5.75a1.9,1.9,0,0,1,1.62.19l15,8.67c.53.31.68.74.33.94Z"/><path class="cls-20" d="M491.73,366.62a1.88,1.88,0,0,1-1.63-.19l-15-8.66c-.54-.31-.7-.74-.34-.95l9.95-5.75a1.92,1.92,0,0,1,1.63.2l15,8.66c.54.31.69.74.34.94Z"/><path class="cls-20" d="M512.41,378.56a1.89,1.89,0,0,1-1.63-.2l-15-8.66c-.54-.31-.7-.73-.34-.94l10-5.75a1.9,1.9,0,0,1,1.62.19l15,8.67c.54.31.68.73.33.94Z"/><path class="cls-20" d="M533.1,390.48a1.88,1.88,0,0,1-1.63-.19l-15-8.67c-.54-.31-.68-.73-.32-.93l10-5.75a1.83,1.83,0,0,1,1.62.19l15,8.67c.53.31.68.73.33.93Z"/><path class="cls-20" d="M553.77,402.41a1.88,1.88,0,0,1-1.63-.19l-15-8.66c-.55-.31-.7-.73-.34-.94l10-5.75a1.89,1.89,0,0,1,1.63.19l15,8.67c.54.31.68.73.33.93Z"/><path class="cls-20" d="M574.45,414.35a1.88,1.88,0,0,1-1.63-.19l-15-8.67c-.54-.31-.69-.73-.33-.94l10-5.75a1.9,1.9,0,0,1,1.62.19l15,8.67c.53.31.68.73.33.94Z"/><path class="cls-20" d="M459.18,332a1.88,1.88,0,0,1-1.63-.18l-15-8.67c-.54-.31-.68-.73-.32-.94l10-5.75a1.9,1.9,0,0,1,1.62.19l15,8.66c.54.32.69.74.33.94Z"/><path class="cls-20" d="M479.86,343.94a1.87,1.87,0,0,1-1.63-.18l-15-8.67c-.54-.31-.69-.73-.33-.94l9.95-5.75a1.92,1.92,0,0,1,1.63.19l15,8.67c.53.31.68.73.33.94Z"/><path class="cls-20" d="M500.54,355.88a1.9,1.9,0,0,1-1.64-.19l-15-8.67c-.53-.3-.68-.73-.32-.94l10-5.75a1.9,1.9,0,0,1,1.62.19l15,8.67c.55.31.69.74.34.94Z"/><path class="cls-20" d="M521.21,367.81a1.88,1.88,0,0,1-1.63-.18l-15-8.67c-.54-.31-.69-.74-.32-.95l10-5.75a1.89,1.89,0,0,1,1.63.2l15,8.66c.55.32.69.74.33.94Z"/><path class="cls-20" d="M541.9,379.74a1.88,1.88,0,0,1-1.63-.19l-15-8.66c-.54-.32-.69-.74-.32-.95l10-5.75a1.87,1.87,0,0,1,1.62.2l15,8.66c.53.31.68.73.33.94Z"/><path class="cls-20" d="M562.58,391.67a1.87,1.87,0,0,1-1.64-.19l-15-8.66c-.53-.31-.68-.74-.32-.95l9.95-5.75a2,2,0,0,1,1.63.19l15,8.67c.55.32.69.74.34.94Z"/><path class="cls-20" d="M583.25,403.6a1.88,1.88,0,0,1-1.63-.18l-15-8.67c-.54-.31-.68-.73-.32-.94l10-5.75a1.89,1.89,0,0,1,1.63.19l15,8.67c.53.31.68.73.33.93Z"/><path class="cls-20" d="M417.92,308.21a1.85,1.85,0,0,1-1.63-.19l-25.47-14.69c-.54-.31-.69-.74-.33-.95l10-5.74a1.89,1.89,0,0,1,1.63.19l25.46,14.69c.54.32.69.74.33.94Z"/><path class="cls-20" d="M617.63,407.62a1.88,1.88,0,0,1-1.63-.19l-25.46-14.69c-.54-.31-.69-.74-.33-.95l9.95-5.74a1.88,1.88,0,0,1,1.63.19l25.46,14.69c.54.31.69.74.33.94Z"/><path class="cls-20" d="M409.11,319a1.85,1.85,0,0,1-1.63-.19l-30.36-17.52c-.54-.31-.69-.73-.33-.94l9.95-5.75a1.89,1.89,0,0,1,1.63.2l30.36,17.51c.54.32.69.74.33.94Z"/><path class="cls-20" d="M385.29,321a1.89,1.89,0,0,1-1.63-.19l-20.24-11.68c-.54-.31-.69-.74-.33-.94l10-5.75a1.89,1.89,0,0,1,1.63.19l20.24,11.68c.54.31.69.74.33.94Z"/><path class="cls-20" d="M441.85,306.2a1.88,1.88,0,0,1-1.63-.19l-15-8.66c-.54-.31-.69-.74-.33-1l9.95-5.74a1.85,1.85,0,0,1,1.63.19l15,8.66c.55.31.69.73.33.94Z"/><path class="cls-20" d="M462.44,318.07a1.91,1.91,0,0,1-1.64-.19l-15-8.67c-.54-.31-.69-.73-.33-.94l9.94-5.75a1.9,1.9,0,0,1,1.64.19l15,8.67c.54.31.69.73.33.94Z"/><path class="cls-20" d="M483.11,330a1.85,1.85,0,0,1-1.63-.19l-15-8.66c-.53-.31-.68-.74-.32-.95l9.95-5.74a1.88,1.88,0,0,1,1.63.19l15,8.66c.55.32.69.73.33.94Z"/><path class="cls-20" d="M503.79,341.94a1.92,1.92,0,0,1-1.63-.19l-15-8.67c-.54-.31-.69-.73-.33-.94l9.95-5.75a1.88,1.88,0,0,1,1.63.19l15,8.67c.54.31.69.73.33.94Z"/><path class="cls-20" d="M524.47,353.86a1.88,1.88,0,0,1-1.63-.18l-15-8.67c-.54-.31-.69-.73-.33-.94l10-5.75a1.91,1.91,0,0,1,1.64.19l15,8.67c.55.31.68.73.32.94Z"/><path class="cls-20" d="M545.15,365.79a1.86,1.86,0,0,1-1.62-.18l-15-8.67c-.53-.31-.68-.73-.32-.94l10-5.75a1.86,1.86,0,0,1,1.62.19l15,8.67c.53.31.68.73.32.94Z"/><path class="cls-20" d="M565.83,377.73a1.88,1.88,0,0,1-1.63-.19l-15-8.67c-.54-.31-.69-.74-.33-.94l9.95-5.75a1.91,1.91,0,0,1,1.64.19l15,8.67c.54.31.69.73.33.94Z"/><path class="cls-20" d="M586.51,389.66a1.92,1.92,0,0,1-1.63-.19l-15-8.67c-.53-.31-.68-.73-.32-.94l10-5.74a1.88,1.88,0,0,1,1.63.18l15,8.67c.54.31.68.73.32.94Z"/><path class="cls-20" d="M598.53,400.18a2.4,2.4,0,0,0-.88-.29,1.26,1.26,0,0,0-.74.1L587,405.74a.34.34,0,0,0-.18.43,1.06,1.06,0,0,0,.5.51l3.92,2.26-13.05,7.54a.34.34,0,0,0-.17.44,1,1,0,0,0,.5.5l10.12,5.84a2.13,2.13,0,0,0,.88.29,1.3,1.3,0,0,0,.75-.09l23.66-13.67a.32.32,0,0,0,.16-.43,1,1,0,0,0-.5-.51Z"/><path class="cls-20" d="M382.6,316.18s-.09,0-.16,0L371,309.51c-.06,0-.09-.07-.07-.09l.72-.42a.24.24,0,0,1,.16.05l11.48,6.62c.06,0,.1.08.08.09Z"/><path class="cls-21" d="M474.41,374.16h0c-3.78-2.18-1.13-5.9,4.19-5.89h0c6,0,10.9-2.8,10.88-6.28V360.2c0-3.48-4.92-6.31-11-6.32h0c-5.32,0-8-3.73-4.25-5.9h0c4.24-2.45,4.22-6.44,0-8.91L472,337.8c-4.28-2.47-11.19-2.49-15.44,0h0c-3.75,2.17-10.2.61-10.22-2.46h0c0-3.48-4.92-6.31-10.95-6.32h-3.1c-6,0-10.9,2.8-10.88,6.28h0c0,3.08-6.42,4.61-10.19,2.43h0c-4.28-2.47-11.19-2.49-15.44,0l-2.19,1.26c-4.25,2.45-4.22,6.44.05,8.91,3.78,2.18,1.13,5.9-4.19,5.89h0c-6,0-10.9,2.8-10.88,6.28v1.79c0,3.48,4.92,6.31,10.95,6.32h0c5.32,0,8,3.73,4.25,5.9h0c-4.24,2.45-4.22,6.45.05,8.91l2.2,1.27c4.28,2.47,11.19,2.49,15.44,0,3.75-2.16,10.2-.61,10.22,2.46,0,3.48,4.92,6.31,11,6.32h3.1c6,0,10.9-2.8,10.88-6.28h0c0-3.08,6.41-4.61,10.19-2.43h0c4.28,2.47,11.19,2.49,15.44,0l2.19-1.26C478.7,380.62,478.68,376.63,474.41,374.16ZM414.94,372c-10.61-6.13-10.67-16-.12-22.12s27.7-6.06,38.31.07,10.67,16,.12,22.12S425.55,378.15,414.94,372Z"/><path class="cls-2" d="M481.52,353.18V338.35l-8.6-1.36-3.7-1.77a6.39,6.39,0,0,0-3-3.16l-2.2-1.27a12,12,0,0,0-1.49-.71l6.56-.31.34-9.95-28.63-3.38-2.76-6.64-24.54.75L417,317c-6.4.47-14.6,1.1-14.6,1.1L401,319.79c-2.63-.17-18.44-1.33-18.44-1.33v12.93l5.78-1-.52.27-2.19,1.27a6.2,6.2,0,0,0-3,3.28l-12,.79v16.13l.11,0a3.41,3.41,0,0,0-.11.85v1.79c0,3.48,4.92,6.31,10.95,6.32h0c.36,0,.71,0,1,.05l.05,10.16h0c-.06,1.66,1,3.33,3.21,4.6l2.2,1.27a17.07,17.07,0,0,0,15.44,0c3.75-2.17,10.2-.62,10.21,2.46,0,3.48,4.92,6.31,10.95,6.32h3.1c6,0,10.91-2.8,10.89-6.28h0c0-3.07,6.41-4.6,10.19-2.42h0c4.27,2.47,11.19,2.48,15.43,0l2.19-1.26c2.65-1.53,3.64-3.66,3-5.64h0v-9.1a11.22,11.22,0,0,1,1.18-.06c5.83,0,10.57-2.63,10.85-5.95h0v-.17c0-.05,0-.1,0-.15v-1.81Zm-54.69,3.69c-10.61,0-19.21-5-19.21-11.1s8.6-11.09,19.21-11.09,19.22,5,19.22,11.09S437.44,356.87,426.83,356.87Z"/><path class="cls-11" d="M466.45,350.15h0c-3.77-2.18-1.13-5.89,4.2-5.88h0c6,0,10.9-2.81,10.88-6.29v-1.79c0-3.48-4.92-6.31-10.95-6.32h0c-5.33,0-8-3.73-4.26-5.9h0c4.25-2.45,4.23-6.44-.05-8.91l-2.2-1.27c-4.27-2.47-11.19-2.48-15.43,0h0c-3.76,2.17-10.21.62-10.22-2.46h0c0-3.48-4.92-6.31-11-6.32h-3.1c-6,0-10.9,2.8-10.89,6.28h0c0,3.07-6.41,4.6-10.19,2.42h0a17.05,17.05,0,0,0-15.43,0l-2.19,1.26c-4.25,2.46-4.23,6.45,0,8.92,3.78,2.18,1.13,5.89-4.2,5.88h0c-6,0-10.9,2.8-10.88,6.28v1.79c0,3.48,4.92,6.31,10.95,6.33h0c5.33,0,8,3.73,4.26,5.89h0c-4.25,2.46-4.23,6.45,0,8.92l2.2,1.27a17.07,17.07,0,0,0,15.44,0c3.75-2.17,10.2-.62,10.21,2.45,0,3.48,4.92,6.31,10.95,6.33h3.1c6,0,10.91-2.8,10.89-6.28h0c0-3.08,6.41-4.6,10.19-2.42h0c4.27,2.47,11.19,2.48,15.43,0l2.19-1.27C470.75,356.61,470.73,352.62,466.45,350.15ZM407,348c-10.62-6.12-10.67-16-.12-22.12s27.69-6.05,38.31.07,10.66,16,.12,22.12S417.6,354.14,407,348Z"/><path class="cls-21" d="M550.47,415h0c-3.34-1.93-1-5.22,3.71-5.21h0c5.34,0,9.65-2.48,9.63-5.56v-1.59c0-3.08-4.35-5.58-9.69-5.59h0c-4.71,0-7.09-3.3-3.77-5.22h0c3.77-2.17,3.75-5.7,0-7.89l-1.95-1.12a15.08,15.08,0,0,0-13.66,0h0c-3.32,1.92-9,.55-9-2.17h0c0-3.09-4.36-5.59-9.69-5.6h-2.75c-5.33,0-9.64,2.48-9.63,5.56h0c0,2.72-5.67,4.07-9,2.14h0a15.08,15.08,0,0,0-13.66,0L479,383.76c-3.76,2.17-3.74,5.7,0,7.89,3.34,1.93,1,5.21-3.71,5.21h0c-5.34,0-9.65,2.48-9.63,5.56V404c0,3.08,4.35,5.59,9.69,5.6h0c4.71,0,7.09,3.3,3.77,5.22h0c-3.76,2.17-3.75,5.7,0,7.88l1.95,1.13a15.08,15.08,0,0,0,13.66,0c3.32-1.91,9-.54,9,2.18,0,3.08,4.36,5.58,9.69,5.59h2.75c5.33,0,9.64-2.48,9.63-5.56h0c0-2.72,5.67-4.07,9-2.14h0a15.11,15.11,0,0,0,13.66,0l1.93-1.12C554.27,420.66,554.25,417.13,550.47,415Zm-52.63-1.9c-9.39-5.42-9.44-14.18-.11-19.57s24.52-5.36,33.91.06,9.44,14.19.11,19.58S507.23,418.48,497.84,413.05Z"/><path class="cls-2" d="M553.93,397.28V385.67l-6.73-1.07-2.9-1.38a4.93,4.93,0,0,0-2.32-2.47l-1.73-1a9.73,9.73,0,0,0-1.17-.56l5.14-.24.27-7.79-22.42-2.64-2.15-5.2-19.22.58,2.69,5L492,369.8l-1.05,1.34c-2.06-.13-14.44-1-14.44-1v10.12l4.53-.79-.42.22-1.71,1a4.82,4.82,0,0,0-2.34,2.58l-9.42.61v12.63l.08,0a2.51,2.51,0,0,0-.08.67v1.4c0,2.72,3.86,4.94,8.58,4.95h0a7.09,7.09,0,0,1,.81,0l0,8h0c0,1.3.8,2.61,2.52,3.61l1.72,1a13.38,13.38,0,0,0,12.09,0c2.94-1.69,8-.48,8,1.93,0,2.72,3.85,4.94,8.57,5h2.43c4.72,0,8.53-2.19,8.52-4.92h0c0-2.41,5-3.6,8-1.89h0a13.36,13.36,0,0,0,12.08,0l1.71-1c2.08-1.2,2.85-2.86,2.33-4.41h0v-7.13a9,9,0,0,1,.92-.05c4.57,0,8.28-2.05,8.5-4.66h0v-.13s0-.08,0-.12v-1.41Zm-42.82,2.89c-8.3,0-15-3.89-15-8.69s6.74-8.68,15-8.68,15,3.89,15,8.68S519.42,400.17,511.11,400.17Z"/><path class="cls-11" d="M542.14,394.91h0c-3-1.71-.89-4.62,3.28-4.61h0c4.72,0,8.53-2.19,8.52-4.92V384c0-2.72-3.85-4.94-8.57-5h0c-4.17,0-6.27-2.92-3.34-4.62h0c3.33-1.92,3.31-5,0-7l-1.73-1a13.36,13.36,0,0,0-12.08,0h0c-2.94,1.7-8,.48-8-1.93h0c0-2.72-3.85-4.94-8.57-4.95h-2.43c-4.72,0-8.54,2.19-8.52,4.92h0c0,2.41-5,3.6-8,1.89h0a13.38,13.38,0,0,0-12.09,0l-1.71,1c-3.33,1.92-3.31,5.05,0,7,3,1.71.88,4.61-3.29,4.61h0c-4.72,0-8.53,2.19-8.51,4.91v1.41c0,2.72,3.86,4.94,8.58,4.95h0c4.17,0,6.27,2.92,3.33,4.61h0c-3.33,1.93-3.31,5,0,7l1.72,1a13.38,13.38,0,0,0,12.09,0c2.94-1.7,8-.48,8,1.92,0,2.73,3.85,5,8.57,5h2.43c4.72,0,8.53-2.2,8.52-4.92h0c0-2.41,5-3.6,8-1.9h0a13.33,13.33,0,0,0,12.08,0l1.71-1C545.5,400,545.48,396.84,542.14,394.91Zm-46.56-1.67c-8.31-4.8-8.35-12.55-.1-17.32s21.69-4.74,30,.05,8.35,12.55.09,17.32S503.89,398,495.58,393.24Z"/><path class="cls-7" d="M68.44,338.14l-8.7-5c-3.52-2-3.07-5.61,1-7.95l6.59-3.81c4.06-2.34,10.26-2.6,13.78-.57l8.7,5c3.52,2,3.07,5.61-1,8l-6.59,3.8C78.16,339.92,72,340.17,68.44,338.14Z"/><path class="cls-7" d="M166.8,277.28l-8.7-5c-3.52-2-3.08-5.61,1-7.95l6.59-3.81c4.06-2.34,10.26-2.6,13.77-.57l8.71,5c3.51,2,3.07,5.6-1,7.95l-6.59,3.8C176.52,279.05,170.32,279.31,166.8,277.28Z"/><path class="cls-7" d="M272.58,222.5l-8.71-5c-3.51-2-3.07-5.61,1-8l6.59-3.8c4.06-2.35,10.26-2.6,13.78-.57l8.7,5c3.52,2,3.08,5.61-1,8l-6.6,3.8C282.29,224.28,276.09,224.53,272.58,222.5Z"/><path class="cls-5" d="M190.53,155.67,94.76,204.21a40.19,40.19,0,0,0-22,36.6L74.4,328.6"/><line class="cls-5" x1="170.12" y1="167.29" x2="170.12" y2="269.8"/><line class="cls-5" x1="277.75" y1="187.08" x2="277.75" y2="213.44"/><path class="cls-6" d="M312.61,542.39l25.59-15a14.31,14.31,0,0,0,7-12l2.17-75.22-47.95,28.15h0l-58.38-34.28v75.2A14.14,14.14,0,0,0,248,521.48l35.62,20.92A28.6,28.6,0,0,0,312.61,542.39Z"/><path class="cls-22" d="M345.6,501.67a14.61,14.61,0,0,1-7.11,12.08l-25.66,15a28.74,28.74,0,0,1-29.09,0L248,507.85a14.14,14.14,0,0,1-7-12.22v13.75a14.14,14.14,0,0,0,7,12.22l35.73,20.92a28.74,28.74,0,0,0,29.09,0l25.66-15a14.32,14.32,0,0,0,7-12Z"/><path class="cls-19" d="M301.85,471.73,243,436.43c-2.85-1.72-4-7.7-2-10.78l33.92-53.29c3.66-5.75,9.2-7.32,14.54-4.11l53.23,31.91c4.63,2.78,6.46,12.49,3.28,17.48L313.61,468.4C310.65,473.05,306.17,474.32,301.85,471.73Z"/><path class="cls-19" d="M301.85,471.73,243,436.43c-2.85-1.72-4-7.7-2-10.78l33.92-53.29c3.66-5.75,9.2-7.32,14.54-4.11l53.23,31.91c4.63,2.78,6.46,12.49,3.28,17.48L313.61,468.4C310.65,473.05,306.17,474.32,301.85,471.73Z"/><path class="cls-23" d="M273.85,388.39a5.32,5.32,0,0,0-7.23,1.71l-20.51,32.21c-1.82,2.87-.77,8.45,1.89,10l54.86,32.9c4,2.41,8.2,1.23,10.95-3.1l18.62-29.24a7.85,7.85,0,0,0-2.59-11Z"/><path class="cls-24" d="M258.49,424.19s5.84-3.54,10.81-.6c3.8,2.24,1.21,2,6.41,3.68,3.06,1,11.71-3.86,18.65-.44,12.55,6.19,25.28-5.27,28.36,1.3l-18.26,29.81-48.71-29.27Z"/><line class="cls-25" x1="255.65" y1="428.84" x2="273.88" y2="399.06"/><line class="cls-25" x1="267.99" y1="435.79" x2="286.23" y2="406.01"/><line class="cls-25" x1="280.1" y1="443.11" x2="298.34" y2="413.33"/><line class="cls-25" x1="292.22" y1="450.42" x2="310.46" y2="420.64"/><line class="cls-25" x1="304.05" y1="458.2" x2="322.29" y2="428.42"/><path class="cls-11" d="M323.9,425.48l-1.54-1.06a.52.52,0,0,1,0-.67h0c.16-.26.42-.37.59-.25l1.54,1.06a.53.53,0,0,1,0,.68h0C324.34,425.49,324.07,425.6,323.9,425.48Z"/><path class="cls-11" d="M302.77,459.69l-1.54-1.07h0l-1.14-.79c-.17-.12-.43,0-.59.24s-.14.56,0,.67l1.54,1.07h0l1.14.79c.17.12.44,0,.59-.24S302.94,459.8,302.77,459.69Z"/><path class="cls-11" d="M289.75,451.23l-1.54-1.06h0l-1.14-.79c-.17-.12-.43,0-.59.25a.52.52,0,0,0,0,.67l1.54,1.06h0l1.14.79c.17.12.44,0,.59-.25A.51.51,0,0,0,289.75,451.23Z"/><path class="cls-11" d="M277.53,443.43,276,442.37h0l-1.14-.79c-.17-.12-.43,0-.59.24a.53.53,0,0,0,0,.68l1.54,1.06h0l1.14.79c.17.11.44,0,.59-.25A.51.51,0,0,0,277.53,443.43Z"/><path class="cls-11" d="M266,436.13l-1.54-1.07h0l-1.14-.79c-.17-.12-.43,0-.59.24s-.14.56,0,.67l1.54,1.07h0l1.15.78c.17.12.43,0,.59-.24A.52.52,0,0,0,266,436.13Z"/><path class="cls-11" d="M311.26,418.61l-1.53-1.06a.5.5,0,0,1,0-.67h0c.15-.26.42-.37.59-.25l1.53,1.06a.52.52,0,0,1,0,.68h0C311.7,418.62,311.43,418.73,311.26,418.61Z"/><path class="cls-11" d="M299,411.82l-1.54-1.06a.53.53,0,0,1,0-.68h0c.16-.25.42-.36.59-.24l1.54,1.06a.53.53,0,0,1,0,.68h0C299.38,411.83,299.12,411.94,299,411.82Z"/><path class="cls-11" d="M286.5,404.87,285,403.8a.52.52,0,0,1,0-.67h0c.15-.25.42-.36.59-.25l1.54,1.07a.52.52,0,0,1,0,.67h0C286.93,404.87,286.67,405,286.5,404.87Z"/><path class="cls-11" d="M274.34,397.83l-1.54-1.06a.53.53,0,0,1,0-.68h0c.16-.25.42-.36.59-.24l1.54,1.06a.53.53,0,0,1,0,.68h0C274.78,397.84,274.51,398,274.34,397.83Z"/><path class="cls-11" d="M253.39,428.75l-1.54-1.06h0l-1.14-.79c-.17-.11-.44,0-.59.25a.5.5,0,0,0,0,.67l1.53,1.06h0l1.14.79c.17.12.44,0,.59-.24A.53.53,0,0,0,253.39,428.75Z"/><path class="cls-22" d="M297.43,395.22l-17.59-10.56c-2-1.2-2.51-4.22-1.14-6.71l.24-.44c1.38-2.48,4.14-3.54,6.14-2.33l17.58,10.56c2,1.2,2.52,4.22,1.14,6.71l-.24.44C302.19,395.37,299.43,396.43,297.43,395.22Z"/><path class="cls-22" d="M326.51,412.86,308.93,402.3c-2-1.21-2.52-4.22-1.14-6.71l.24-.44c1.37-2.49,4.13-3.54,6.13-2.34l17.58,10.57c2,1.2,2.52,4.22,1.15,6.71l-.25.43C331.27,413,328.51,414.06,326.51,412.86Z"/><path class="cls-26" d="M214.78,425.19l-3.13,9.48a36.21,36.21,0,0,0,1.1,25.62l4.44,10.36,4.17-3.23-3-12.21a19.44,19.44,0,0,1,.55-11C220.62,439.25,221.75,431.22,214.78,425.19Z"/><path class="cls-27" d="M225.21,425.41l-1.68,18.82c-.61,1.5-14.28-2.47-13.6-4.73.12-.4,2.84-22.54,9.35-27.25C224.57,408.42,226.93,416.92,225.21,425.41Z"/><ellipse class="cls-2" cx="233.31" cy="545.35" rx="21.12" ry="10.49" transform="translate(-9.63 4.22) rotate(-1.02)"/><path class="cls-22" d="M217.49,536.67l4.95-.62c3.31-1.5,4.86-2.63,6.33-1.78l.42.24c1.48.85,1.29,2.35-.41,3.34l-7.28,5.78a4.8,4.8,0,0,1-5.35-.52s-.82-.74-.23-3.83C216.25,537.52,216.13,537.45,217.49,536.67Z"/><path class="cls-22" d="M239.24,548.34l4.9.93c3.61-.42,5.43-1,6.57.24l.32.36c1.15,1.26.51,2.63-1.41,3l-8.69,3.27a4.78,4.78,0,0,1-4.94-2.13s-.55-.95.95-3.71C237.79,548.77,237.7,548.67,239.24,548.34Z"/><path class="cls-28" d="M242.65,549.55c0,2.48-6,2.48-6,0v-8h6Z"/><path class="cls-8" d="M243.41,544.47c-2,2.8-6.29,2.82-7.51.79l-10.46-83.73h21.74Z"/><path class="cls-28" d="M222.15,537.65c-.14,2.24-6.16,2.24-6,0l.44-7.29h6Z"/><path class="cls-8" d="M223.33,534.41c-2.41,2.48-7.14,1.42-8.05-.37l3.19-72.59,15.14,2.25Z"/><ellipse class="cls-29" cx="233.31" cy="401.4" rx="6.41" ry="11.31" transform="translate(-49.55 33.24) rotate(-7.37)"/><path class="cls-26" d="M244.72,405.9c-1.49,5.2-7.07,7.08-10.34,3.69s-4.73-10.37-3.24-15.57,5.36-6.67,8.64-3.27S246.22,400.69,244.72,405.9Z"/><path class="cls-26" d="M232.11,420.91l-.56-.13a3.51,3.51,0,0,1-2.66-4.18L231.26,406a3.51,3.51,0,0,1,4.19-2.66l.55.12a3.52,3.52,0,0,1,2.66,4.19l-.77,10.54C237.47,420.05,234,421.33,232.11,420.91Z"/><path class="cls-6" d="M225.78,406.68s.56,4.9,7.53,3.92c5-.7,3.54-8.83,8.53-9.65,5.49-.89,6.49-7.68,4.32-10.28s-8.21-4-12.59-2S222.43,390.45,225.78,406.68Z"/><path class="cls-26" d="M241.86,403.78a2.38,2.38,0,1,1-1.63-2.95A2.39,2.39,0,0,1,241.86,403.78Z"/><path class="cls-30" d="M217.84,460.51c1.77-9.75-.14-17.45,0-27.81,0-18.63-.9-23.18,8.95-20.35l2.78.74a19.79,19.79,0,0,1,3.85,1.49c13,6.69,16.45,8.75,15.88,16.51.06,12.78-1.82,27.12-2.09,33.41C244.55,473.34,220.81,466.83,217.84,460.51Z"/><path class="cls-31" d="M238.39,411.3l-.56-1.31a3.57,3.57,0,0,0,2.92.76A4.6,4.6,0,0,1,238.39,411.3Z"/><path class="cls-26" d="M238.86,425.35s2.83,12.95,19,30c4.45,4.7,23.12-12.77,23.12-12.77l-1.43-6.5s-15.47,14.84-19.62,9.22C255.23,439,252,419.55,238.86,425.35Z"/><path class="cls-30" d="M241.84,434.83l8,17.11c1.09,1.2,12.57-7.21,11.16-9.1-.25-.34-10.38-20.2-18.12-22.4C236.62,418.65,237.32,427.45,241.84,434.83Z"/><path class="cls-26" d="M284.53,440.57l-2.06,1.52a3.6,3.6,0,0,1-5-.76h0a3.59,3.59,0,0,1,.75-5l2.07-1.52a3.6,3.6,0,0,1,5,.76h0A3.6,3.6,0,0,1,284.53,440.57Z"/><polygon class="cls-27" points="248.5 449.02 243.97 439.37 247.23 458.58 248.5 449.02"/><path class="cls-32" d="M244.66,62.28c-22.84,12.58-40,43.08-38.34,68.11,0,.51.08,1,.13,1.53a28.9,28.9,0,0,0-3.45,1.63c-13.69,7.54-24,25.8-23,40.81,1,14.5,12.12,20.63,25.23,14.22l91.91-51c15.45-8.43,27-29,25.89-46-1.14-17.08-14.54-24-30.12-15.47a41.05,41.05,0,0,0-4.63,3C284.2,58.35,265.7,50.69,244.66,62.28Z"/><path class="cls-11" d="M254.25,69c-22.84,12.58-40,43.08-38.35,68.12,0,.51.09,1,.14,1.53a26.79,26.79,0,0,0-3.45,1.63c-13.69,7.53-24,25.8-23,40.8,1,14.5,12.12,20.64,25.23,14.23l91.91-51c15.45-8.43,27-29,25.89-45.95-1.14-17.08-14.54-24.05-30.12-15.47a39.82,39.82,0,0,0-4.64,3C293.79,65.08,275.29,57.42,254.25,69Z"/><path class="cls-4" d="M258.8,70c-22.84,12.58-40,43.08-38.35,68.11,0,.51.09,1,.14,1.53a30.67,30.67,0,0,0-3.46,1.63c-13.69,7.54-24,25.8-23,40.81,1,14.5,12.12,20.63,25.22,14.22l91.92-51c15.45-8.43,27-29,25.88-46C336.05,82.35,322.65,75.38,307.06,84a42,42,0,0,0-4.63,3C298.33,66.11,279.84,58.45,258.8,70Z"/><path class="cls-33" d="M263.55,76.28C241.17,88.61,224.34,118.5,226,143c0,.51.09,1,.13,1.5a29.35,29.35,0,0,0-3.38,1.6c-13.42,7.39-23.49,25.29-22.52,40,1,14.21,11.88,20.23,24.73,13.94L315,150.12c15.14-8.26,26.47-28.45,25.37-45-1.12-16.74-14.25-23.58-29.52-15.16a38.08,38.08,0,0,0-4.54,2.93C302.3,72.43,284.17,64.92,263.55,76.28Z"/><path class="cls-34" d="M239.23,140l55.21-31.72a46.3,46.3,0,0,1,4.49-2.53,3.51,3.51,0,0,1,3.44.38h0l14.16,9.13-11.14,15.08-.27,14.82c-.17,9.48-6.48,20.79-14,25.12l-26.45,15.19L252,204.75l-14.55-8.55a7,7,0,0,1-.7-.55l0,0h0c-2-1.84-3.21-5-3.13-9.32l.68-37.36C234.33,145.57,236.56,141.57,239.23,140Z"/><path class="cls-2" d="M260.38,204l43.34-23.11c7.4-4,13.6-14.94,13.77-24.43l.68-37.35c.06-3.36-2-5-4.65-3.57L252.78,147.9c-2.62,1.39-4.81,5.29-4.87,8.64l-.68,37.36C247.06,203.39,253,207.92,260.38,204Z"/><path class="cls-11" d="M263.85,196.41h0a2.4,2.4,0,0,0,2.48-2.31l.67-37.36a2.4,2.4,0,0,0-2.38-2.41h0a2.4,2.4,0,0,0-2.48,2.31L261.46,194A2.41,2.41,0,0,0,263.85,196.41Z"/><path class="cls-7" d="M251.39,139.79c2.94,1.67,8.06,1.66,11.44,0s3.73-4.4.79-6.07-8.05-1.66-11.43,0S248.46,138.12,251.39,139.79Z"/><path class="cls-35" d="M251.64,137.81c2.94,1.67,8.06,1.67,11.43,0s3.74-4.4.8-6.07-8.05-1.66-11.43,0S248.7,136.14,251.64,137.81Z"/><ellipse class="cls-7" cx="292.36" cy="119.09" rx="8.11" ry="4.28" transform="translate(-5.94 15.77) rotate(-3.06)"/><path class="cls-35" d="M286.49,120.16c2.94,1.67,8.05,1.66,11.43,0s3.74-4.4.8-6.07-8.06-1.66-11.43,0S283.55,118.49,286.49,120.16Z"/><path class="cls-7" d="M253.22,135.69a9.15,9.15,0,0,0,7.66,0c2.26-1.12,2.5-2.94.54-4.06a9.11,9.11,0,0,0-7.66,0C251.49,132.75,251.26,134.57,253.22,135.69Z"/><ellipse class="cls-7" cx="292.75" cy="115.97" rx="5.43" ry="2.86" transform="translate(-5.77 15.77) rotate(-3.06)"/><path class="cls-7" d="M262.67,133.25l.3-17.08c-.34-6,3.4-14.76,9.38-17.82l6.18-3.17c2.16-1.11,4.2-1.35,5.74-.68a5.47,5.47,0,0,1,2.76,3,8.24,8.24,0,0,1,.58,3.39l-.33,14.57c.39,2.54,11.22,2.54,10.83,0l-.22-17.23c-.87-5.67-4.13-10.11-9-12.19-4.6-2-10.2-1.62-15.35,1l-6.19,3.17c-9.81,5-14.94,14-15.49,27.42v16.36C252.26,136.34,263.06,135.78,262.67,133.25Z"/><path class="cls-36" d="M291.43,151.54c0-4.33-3.48-6.08-7.85-3.9s-7.92,7.45-7.95,11.79,3.49,6.08,7.85,3.9S291.41,155.88,291.43,151.54Z"/><path class="cls-36" d="M284.63,150.62l-.57.17c-2.08.66-3.79,4-3.78,7.35l0,10.49c0,3.39,1.72,5.62,3.8,5l.57-.18c2.09-.66,3.79-4,3.78-7.34l0-10.5C288.43,152.19,286.71,150,284.63,150.62Z"/><path class="cls-7" d="M284,165.53V158.6a13.17,13.17,0,0,0,3-7.59,4.77,4.77,0,0,0-1.7-4c3.56-1,6.21.79,6.19,4.56a13.26,13.26,0,0,1-3,7.59v6.93c0,3.39-1.69,6.69-3.78,7.35l-.57.18a2.46,2.46,0,0,1-2.89-1.27C282.8,171.09,284,168.34,284,165.53Z"/><path class="cls-37" d="M447.22,112c.89-4.76,3.32-6.22,6.55-4.41s4.66,5.45,3.76,10.2-3.33,6.31-6.54,4.51S446.32,116.73,447.22,112Zm8.3,4.66c.78-4.16-.16-6.55-2-7.6s-3.47-.08-4.26,4.07.15,6.64,2,7.71S454.73,120.8,455.52,116.64Z"/><path class="cls-37" d="M459.75,119c.9-4.76,3.32-6.22,6.55-4.41s4.67,5.45,3.77,10.2-3.34,6.31-6.54,4.51S458.86,123.78,459.75,119Zm8.3,4.66c.79-4.16-.16-6.55-2-7.6s-3.48-.08-4.26,4.07.14,6.64,2,7.71S467.27,127.84,468.05,123.68Z"/><path class="cls-37" d="M472.29,126.06c.9-4.76,3.32-6.22,6.55-4.41s4.67,5.45,3.77,10.2-3.34,6.31-6.54,4.51S471.39,130.82,472.29,126.06Zm8.3,4.66c.78-4.16-.16-6.55-2-7.6s-3.47-.08-4.25,4.07.14,6.65,2,7.71S479.81,134.88,480.59,130.72Z"/><path class="cls-37" d="M484.83,133.1c.9-4.76,3.32-6.22,6.55-4.41s4.66,5.45,3.77,10.2-3.34,6.31-6.54,4.51S483.93,137.86,484.83,133.1Zm8.3,4.66c.78-4.15-.16-6.55-2-7.6s-3.47-.08-4.25,4.07.14,6.65,2,7.71S492.35,141.92,493.13,137.76Z"/><path class="cls-37" d="M497.19,146.26l3.68,2.07,2-10.45-2.92-1.64.22-1.18a10.54,10.54,0,0,0,3.6.87l1.59.89-2.39,12.67,3.33,1.87-.28,1.51-9.09-5.1Z"/><path class="cls-37" d="M509.73,153.3l3.68,2.07,2-10.45-2.93-1.64.22-1.18a10.64,10.64,0,0,0,3.61.87l1.59.89-2.39,12.67,3.33,1.87-.29,1.51-9.08-5.1Z"/><path class="cls-37" d="M522.26,160.34l3.69,2.07,2-10.45L525,150.32l.22-1.18a10.59,10.59,0,0,0,3.61.87l1.58.89L528,163.57l3.33,1.87-.29,1.51-9.08-5.1Z"/><path class="cls-37" d="M535,161.26c.9-4.75,3.32-6.22,6.55-4.41s4.66,5.45,3.77,10.21-3.34,6.31-6.54,4.51S534.08,166,535,161.26Zm8.3,4.66c.78-4.15-.16-6.55-2-7.6s-3.47-.08-4.25,4.08.14,6.64,2,7.7S542.5,170.08,543.28,165.92Z"/><path class="cls-37" d="M547.52,168.3c.89-4.75,3.32-6.22,6.55-4.4s4.66,5.44,3.77,10.2-3.34,6.31-6.55,4.51S546.62,173.06,547.52,168.3Zm8.3,4.66c.78-4.15-.16-6.55-2-7.6s-3.47-.08-4.25,4.08.14,6.64,2,7.7S555,177.12,555.82,173Z"/><path class="cls-37" d="M560.05,175.34c.9-4.75,3.33-6.22,6.55-4.4s4.67,5.44,3.77,10.2-3.34,6.31-6.54,4.51S559.16,180.1,560.05,175.34Zm8.3,4.67c.79-4.16-.15-6.56-2-7.61s-3.47-.08-4.26,4.08.15,6.64,2,7.7S567.57,184.16,568.35,180Z"/><path class="cls-37" d="M572.59,182.38c.9-4.75,3.32-6.22,6.55-4.4s4.67,5.44,3.77,10.2-3.34,6.31-6.54,4.51S571.7,187.14,572.59,182.38Zm8.3,4.67c.79-4.16-.16-6.56-2-7.61s-3.47-.08-4.25,4.08.14,6.64,2,7.7S580.11,191.2,580.89,187.05Z"/><path class="cls-37" d="M585,195.54l3.69,2.07,2-10.44-2.93-1.65.22-1.17a10.54,10.54,0,0,0,3.6.86l1.59.9-2.39,12.66,3.34,1.87-.29,1.52-9.08-5.1Z"/><path class="cls-37" d="M442,144.77l3.68,2.07,2-10.45-2.92-1.64.22-1.18a10.54,10.54,0,0,0,3.6.87l1.59.89L447.76,148l3.33,1.87-.28,1.51-9.08-5.1Z"/><path class="cls-37" d="M454.73,145.69c.89-4.75,3.32-6.22,6.55-4.41s4.66,5.45,3.76,10.21-3.33,6.31-6.54,4.51S453.83,150.45,454.73,145.69Zm8.3,4.66c.78-4.15-.16-6.55-2-7.6s-3.47-.08-4.26,4.08.15,6.64,2,7.7S462.24,154.51,463,150.35Z"/><path class="cls-37" d="M467.26,152.73c.9-4.75,3.32-6.22,6.55-4.4s4.67,5.44,3.77,10.2-3.34,6.31-6.54,4.51S466.37,157.49,467.26,152.73Zm8.3,4.66c.79-4.15-.16-6.55-2-7.6s-3.48-.08-4.26,4.08.14,6.64,2,7.7S474.78,161.55,475.56,157.39Z"/><path class="cls-37" d="M479.62,165.89l3.69,2.07,2-10.45-2.93-1.64.22-1.18a10.6,10.6,0,0,0,3.6.87l1.59.89-2.38,12.67,3.33,1.87-.29,1.51-9.08-5.1Z"/><path class="cls-37" d="M492.16,172.93l3.68,2.07,2-10.44-2.92-1.65.22-1.18a10.54,10.54,0,0,0,3.6.87l1.59.89-2.39,12.67,3.33,1.87-.28,1.51-9.08-5.1Z"/><path class="cls-37" d="M504.88,173.85c.89-4.75,3.32-6.22,6.55-4.4s4.66,5.44,3.76,10.2-3.33,6.31-6.54,4.51S504,178.61,504.88,173.85Zm8.3,4.67c.78-4.16-.16-6.56-2-7.61s-3.47-.08-4.26,4.08.15,6.64,2,7.7S512.39,182.67,513.18,178.52Z"/><path class="cls-37" d="M517.24,187l3.68,2.07,2-10.44L520,177l.22-1.17a10.59,10.59,0,0,0,3.61.86l1.59.9L523,190.24l3.33,1.87-.29,1.52-9.08-5.1Z"/><path class="cls-37" d="M530,187.94c.9-4.76,3.32-6.23,6.55-4.41s4.67,5.44,3.77,10.2-3.34,6.31-6.54,4.51S529.05,192.69,530,187.94Zm8.3,4.66c.78-4.16-.16-6.56-2-7.61s-3.47-.08-4.25,4.08.14,6.64,2,7.7S537.47,196.75,538.25,192.6Z"/><path class="cls-37" d="M542.31,201.1l3.69,2.06,2-10.44L545,191.07l.22-1.17a10.26,10.26,0,0,0,3.6.86l1.59.9-2.39,12.67,3.33,1.87-.28,1.51-9.08-5.1Z"/><path class="cls-37" d="M555,202c.89-4.76,3.32-6.22,6.55-4.41s4.66,5.45,3.77,10.2-3.34,6.31-6.55,4.51S554.13,206.77,555,202Zm8.3,4.66c.78-4.16-.16-6.56-2-7.6s-3.47-.09-4.26,4.07.15,6.64,2,7.71S562.54,210.83,563.33,206.68Z"/><path class="cls-37" d="M567.39,215.18l3.68,2.06,2-10.44-2.93-1.64.23-1.18a10.54,10.54,0,0,0,3.6.87l1.59.89-2.39,12.67,3.33,1.87-.29,1.51-9.08-5.1Z"/><path class="cls-37" d="M580.1,216.1c.9-4.76,3.32-6.22,6.55-4.41s4.67,5.45,3.77,10.2-3.34,6.31-6.54,4.51S579.2,220.85,580.1,216.1Zm8.3,4.66c.79-4.16-.16-6.55-2-7.6s-3.47-.08-4.25,4.07.14,6.64,2,7.71S587.62,224.92,588.4,220.76Z"/><path class="cls-37" d="M437,171.44l3.69,2.07,2-10.44-2.93-1.65.22-1.17a10.78,10.78,0,0,0,3.6.86l1.59.9-2.39,12.66,3.34,1.87-.29,1.52L436.7,173Z"/><path class="cls-37" d="M449.52,178.48l3.68,2.07,2-10.44-2.92-1.65.22-1.17a10.49,10.49,0,0,0,3.6.86l1.59.9-2.39,12.66,3.33,1.87-.28,1.52-9.08-5.1Z"/><path class="cls-37" d="M462.23,179.41c.9-4.76,3.33-6.23,6.56-4.41s4.66,5.44,3.76,10.2-3.33,6.31-6.54,4.51S461.34,184.16,462.23,179.41Zm8.31,4.66c.78-4.16-.16-6.56-2-7.6s-3.47-.09-4.26,4.07.15,6.64,2,7.7S469.75,188.22,470.54,184.07Z"/><path class="cls-37" d="M474.6,192.57l3.68,2.06,2-10.44-2.93-1.65.22-1.17a10.64,10.64,0,0,0,3.61.87l1.59.89-2.39,12.67,3.33,1.87-.29,1.51-9.08-5.1Z"/><path class="cls-37" d="M487.31,193.49c.9-4.76,3.32-6.22,6.55-4.41s4.66,5.45,3.77,10.2-3.34,6.31-6.54,4.51S486.41,198.24,487.31,193.49Zm8.3,4.66c.78-4.16-.16-6.56-2-7.6s-3.47-.09-4.25,4.07.14,6.64,2,7.71S494.83,202.3,495.61,198.15Z"/><path class="cls-37" d="M499.85,200.53c.89-4.76,3.32-6.22,6.55-4.41s4.66,5.45,3.77,10.2-3.34,6.31-6.55,4.51S499,205.28,499.85,200.53Zm8.3,4.66c.78-4.16-.16-6.55-2-7.6s-3.47-.08-4.25,4.07.14,6.64,2,7.71S507.36,209.35,508.15,205.19Z"/><path class="cls-37" d="M512.21,213.69l3.68,2.07,2-10.45-2.93-1.64.23-1.18a10.54,10.54,0,0,0,3.6.87l1.59.89L518,216.92l3.33,1.87L521,220.3l-9.09-5.1Z"/><path class="cls-37" d="M524.75,220.73l3.68,2.07,2-10.45-2.93-1.64.22-1.18a10.64,10.64,0,0,0,3.61.87l1.59.89L530.5,224l3.33,1.87-.29,1.51-9.08-5.1Z"/><path class="cls-37" d="M537.28,227.77l3.69,2.07,2-10.45L540,217.75l.22-1.18a10.6,10.6,0,0,0,3.6.87l1.59.89L543,231l3.33,1.87-.29,1.51-9.08-5.1Z"/><path class="cls-37" d="M550,228.69c.89-4.76,3.32-6.22,6.55-4.41s4.66,5.45,3.77,10.2-3.34,6.31-6.55,4.51S549.1,233.45,550,228.69Zm8.3,4.66c.78-4.15-.16-6.55-2-7.6s-3.47-.08-4.25,4.07.14,6.65,2,7.71S557.52,237.51,558.3,233.35Z"/><path class="cls-37" d="M562.54,235.73c.89-4.76,3.32-6.22,6.55-4.41s4.66,5.45,3.76,10.21-3.33,6.31-6.54,4.51S561.64,240.49,562.54,235.73Zm8.3,4.66c.78-4.15-.16-6.55-2-7.6s-3.47-.08-4.26,4.07.15,6.65,2,7.71S570.05,244.55,570.84,240.39Z"/><path class="cls-37" d="M574.9,248.89l3.68,2.07,2-10.45-2.93-1.64.22-1.18a10.64,10.64,0,0,0,3.61.87l1.59.89-2.39,12.67L584,254l-.29,1.51-9.08-5.1Z"/><path class="cls-37" d="M432,198.12l3.68,2.07,2-10.45-2.93-1.64.22-1.18a10.59,10.59,0,0,0,3.61.87l1.58.89-2.38,12.67,3.33,1.87-.29,1.51-9.08-5.1Z"/><path class="cls-37" d="M444.67,199c.9-4.76,3.32-6.22,6.55-4.41s4.66,5.45,3.77,10.2-3.34,6.31-6.54,4.51S443.77,203.79,444.67,199Zm8.3,4.66c.78-4.16-.16-6.55-2-7.6s-3.47-.08-4.25,4.07.14,6.64,2,7.71S452.19,207.86,453,203.7Z"/><path class="cls-37" d="M457.21,206.08c.89-4.76,3.32-6.22,6.55-4.41s4.66,5.45,3.77,10.2-3.34,6.31-6.55,4.51S456.31,210.84,457.21,206.08Zm8.3,4.66c.78-4.16-.16-6.55-2-7.6s-3.47-.08-4.25,4.07.14,6.65,2,7.71S464.72,214.9,465.51,210.74Z"/><path class="cls-37" d="M469.74,213.12c.9-4.76,3.33-6.22,6.55-4.41s4.67,5.45,3.77,10.2-3.33,6.31-6.54,4.51S468.85,217.88,469.74,213.12Zm8.3,4.66c.79-4.15-.15-6.55-2-7.6s-3.47-.08-4.26,4.07.15,6.65,2,7.71S477.26,221.94,478,217.78Z"/><path class="cls-37" d="M482.1,226.28l3.69,2.07,2-10.45-2.93-1.64.22-1.18a10.59,10.59,0,0,0,3.61.87l1.59.89-2.39,12.67,3.33,1.87-.29,1.51-9.08-5.1Z"/><path class="cls-37" d="M494.82,227.2c.9-4.75,3.32-6.22,6.55-4.41s4.66,5.45,3.77,10.21-3.34,6.31-6.54,4.51S493.92,232,494.82,227.2Zm8.3,4.66c.78-4.15-.16-6.55-2-7.6s-3.47-.08-4.25,4.07.14,6.65,2,7.71S502.34,236,503.12,231.86Z"/><path class="cls-37" d="M507.18,240.36l3.68,2.07,2-10.45-2.92-1.64.22-1.18a10.54,10.54,0,0,0,3.6.87l1.59.89-2.39,12.67,3.33,1.87L516,247l-9.08-5.1Z"/><path class="cls-37" d="M519.89,241.28c.9-4.75,3.33-6.22,6.55-4.41s4.67,5.45,3.77,10.21-3.33,6.31-6.54,4.51S519,246,519.89,241.28Zm8.31,4.66c.78-4.15-.16-6.55-2-7.6s-3.47-.08-4.26,4.08.15,6.64,2,7.7S527.41,250.1,528.2,245.94Z"/><path class="cls-37" d="M532.43,248.32c.9-4.75,3.32-6.22,6.55-4.4s4.67,5.44,3.77,10.2-3.34,6.31-6.54,4.51S531.54,253.08,532.43,248.32Zm8.3,4.66c.79-4.15-.16-6.55-2-7.6s-3.48-.08-4.26,4.08.14,6.64,2,7.7S540,257.14,540.73,253Z"/><path class="cls-37" d="M544.79,261.48l3.69,2.07,2-10.45-2.93-1.64.22-1.18a10.6,10.6,0,0,0,3.6.87l1.59.89-2.38,12.67,3.33,1.87-.29,1.51-9.08-5.1Z"/><path class="cls-37" d="M557.51,262.4c.89-4.75,3.32-6.22,6.55-4.4s4.66,5.44,3.77,10.2-3.34,6.31-6.55,4.51S556.61,267.16,557.51,262.4Zm8.3,4.67c.78-4.16-.16-6.56-2-7.61s-3.47-.08-4.25,4.08.14,6.64,2,7.7S565,271.22,565.81,267.07Z"/><path class="cls-37" d="M570.05,269.44c.89-4.75,3.32-6.22,6.55-4.4s4.66,5.44,3.76,10.2-3.33,6.31-6.54,4.51S569.15,274.2,570.05,269.44Zm8.3,4.67c.78-4.16-.16-6.56-2-7.61s-3.47-.08-4.26,4.08.15,6.64,2,7.7S577.56,278.26,578.35,274.11Z"/><path class="cls-37" d="M426.93,224.79l3.68,2.07,2-10.45-2.93-1.64.22-1.18a10.64,10.64,0,0,0,3.61.87l1.59.89L432.68,228l3.33,1.87-.29,1.51-9.08-5.1Z"/><path class="cls-37" d="M439.46,231.83l3.69,2.07,2-10.45-2.93-1.64.22-1.18a10.6,10.6,0,0,0,3.6.87l1.59.89-2.38,12.67,3.33,1.87-.29,1.51-9.08-5.1Z"/><path class="cls-37" d="M452.18,232.75c.9-4.75,3.32-6.22,6.55-4.41s4.66,5.45,3.77,10.21-3.34,6.31-6.54,4.51S451.28,237.51,452.18,232.75Zm8.3,4.66c.78-4.15-.16-6.55-2-7.6s-3.47-.08-4.25,4.08.14,6.64,2,7.7S459.7,241.57,460.48,237.41Z"/><path class="cls-37" d="M464.72,239.79c.89-4.75,3.32-6.22,6.55-4.4s4.66,5.44,3.77,10.2-3.34,6.31-6.55,4.51S463.82,244.55,464.72,239.79Zm8.3,4.66c.78-4.15-.16-6.55-2-7.6s-3.47-.08-4.26,4.08.15,6.64,2,7.7S472.23,248.61,473,244.45Z"/><path class="cls-37" d="M477.25,246.83c.9-4.75,3.32-6.22,6.55-4.4s4.67,5.44,3.77,10.2-3.33,6.31-6.54,4.51S476.36,251.59,477.25,246.83Zm8.3,4.66c.79-4.15-.15-6.55-2-7.6s-3.47-.08-4.26,4.08.15,6.64,2,7.7S484.77,255.65,485.55,251.49Z"/><path class="cls-37" d="M489.61,260l3.69,2.07,2-10.44L492.34,250l.22-1.18a10.59,10.59,0,0,0,3.61.87l1.59.9-2.39,12.66,3.33,1.87-.29,1.51-9.08-5.1Z"/><path class="cls-37" d="M502.33,260.91c.9-4.75,3.32-6.22,6.55-4.4s4.66,5.44,3.77,10.2-3.34,6.31-6.54,4.51S501.43,265.67,502.33,260.91Zm8.3,4.67c.78-4.16-.16-6.56-2-7.61s-3.47-.08-4.25,4.08.14,6.64,2,7.7S509.85,269.73,510.63,265.58Z"/><path class="cls-37" d="M514.69,274.07l3.68,2.07,2-10.44-2.92-1.65.22-1.17a10.49,10.49,0,0,0,3.6.86l1.59.9-2.39,12.66,3.33,1.87-.28,1.52-9.08-5.1Z"/><path class="cls-37" d="M527.23,281.11l3.68,2.07,2-10.44L530,271.09l.23-1.17a10.26,10.26,0,0,0,3.6.86l1.59.9L533,284.34l3.33,1.87-.29,1.52-9.08-5.1Z"/><path class="cls-37" d="M539.77,288.16l3.68,2.06,2-10.44-2.93-1.65.22-1.17a10.64,10.64,0,0,0,3.61.87l1.59.89-2.39,12.67,3.33,1.87-.29,1.51-9.08-5.1Z"/><path class="cls-37" d="M552.3,295.2l3.69,2.06,2-10.44L555,285.18l.22-1.18a10.6,10.6,0,0,0,3.6.87l1.59.89-2.38,12.67,3.33,1.87-.29,1.51-9.08-5.1Z"/><path class="cls-37" d="M565,296.12c.89-4.76,3.32-6.22,6.55-4.41s4.66,5.45,3.77,10.2-3.34,6.31-6.55,4.51S564.12,300.87,565,296.12Zm8.3,4.66c.78-4.16-.16-6.55-2-7.6s-3.47-.08-4.25,4.07.14,6.64,2,7.71S572.53,304.94,573.32,300.78Z"/><path class="cls-37" d="M599.83,198.79c.89-4.76,3.32-6.23,6.55-4.41s4.66,5.44,3.77,10.2-3.34,6.31-6.55,4.51S598.93,203.54,599.83,198.79Zm8.3,4.66c.78-4.16-.16-6.56-2-7.61s-3.47-.08-4.26,4.08.15,6.64,2,7.7S607.34,207.6,608.13,203.45Z"/><path class="cls-37" d="M612.36,205.83c.9-4.76,3.32-6.23,6.55-4.41s4.67,5.44,3.77,10.2-3.34,6.31-6.54,4.51S611.47,210.58,612.36,205.83Zm8.3,4.66c.79-4.16-.16-6.56-2-7.61s-3.47-.08-4.26,4.08.15,6.64,2,7.7S619.88,214.64,620.66,210.49Z"/><path class="cls-37" d="M624.9,212.87c.9-4.76,3.32-6.22,6.55-4.41s4.67,5.44,3.77,10.2-3.34,6.31-6.54,4.51S624,217.62,624.9,212.87Zm8.3,4.66c.79-4.16-.16-6.56-2-7.6s-3.48-.09-4.26,4.07.14,6.64,2,7.7S632.42,221.68,633.2,217.53Z"/><path class="cls-37" d="M637.44,219.91c.9-4.76,3.32-6.22,6.55-4.41s4.66,5.45,3.77,10.2-3.34,6.31-6.54,4.51S636.54,224.66,637.44,219.91Zm8.3,4.66c.78-4.16-.16-6.56-2-7.6s-3.47-.09-4.25,4.07.14,6.64,2,7.71S645,228.72,645.74,224.57Z"/><path class="cls-37" d="M649.8,233.07l3.68,2.06,2-10.44-2.92-1.64.22-1.18a10.54,10.54,0,0,0,3.6.87l1.59.89-2.39,12.67,3.33,1.87-.28,1.51-9.09-5.1Z"/><path class="cls-37" d="M662.34,240.11l3.68,2.07,2-10.45-2.93-1.64.23-1.18a10.54,10.54,0,0,0,3.6.87l1.59.89-2.39,12.67,3.33,1.87-.28,1.51-9.09-5.1Z"/><path class="cls-37" d="M674.87,247.15l3.69,2.07,2-10.45-2.93-1.64.22-1.18a10.59,10.59,0,0,0,3.61.87l1.59.89-2.39,12.67,3.33,1.87-.29,1.51-9.08-5.1Z"/><path class="cls-37" d="M594.62,231.58l3.68,2.07,2-10.45-2.92-1.64.22-1.18a10.6,10.6,0,0,0,3.6.87l1.59.89-2.39,12.67,3.33,1.87-.28,1.51-9.08-5.1Z"/><path class="cls-37" d="M607.34,232.5c.89-4.76,3.32-6.22,6.55-4.41s4.66,5.45,3.76,10.2-3.33,6.31-6.54,4.51S606.44,237.26,607.34,232.5Zm8.3,4.66c.78-4.16-.16-6.55-2-7.6s-3.47-.08-4.26,4.07.15,6.64,2,7.71S614.85,241.32,615.64,237.16Z"/><path class="cls-37" d="M619.87,239.54c.9-4.76,3.32-6.22,6.55-4.41s4.67,5.45,3.77,10.2-3.34,6.31-6.54,4.51S619,244.3,619.87,239.54Zm8.3,4.66c.79-4.16-.16-6.55-2-7.6s-3.47-.08-4.26,4.07.14,6.65,2,7.71S627.39,248.36,628.17,244.2Z"/><path class="cls-37" d="M632.23,252.7l3.69,2.07,2-10.45L635,242.68l.22-1.18a10.6,10.6,0,0,0,3.6.87l1.59.89L638,255.93l3.33,1.87-.29,1.51-9.08-5.1Z"/><path class="cls-37" d="M644.77,259.74l3.69,2.07,2-10.45-2.92-1.64.22-1.18a10.54,10.54,0,0,0,3.6.87l1.59.89L650.52,263l3.33,1.87-.28,1.51-9.08-5.1Z"/><path class="cls-37" d="M657.49,260.66c.89-4.75,3.32-6.22,6.55-4.41s4.66,5.45,3.76,10.21-3.33,6.31-6.54,4.51S656.59,265.42,657.49,260.66Zm8.3,4.66c.78-4.15-.16-6.55-2-7.6s-3.47-.08-4.26,4.07.15,6.65,2,7.71S665,269.48,665.79,265.32Z"/><path class="cls-37" d="M669.85,273.82l3.68,2.07,2-10.45-2.93-1.64.23-1.18a10.54,10.54,0,0,0,3.6.87l1.59.89-2.39,12.67,3.33,1.87-.29,1.51-9.08-5.1Z"/><path class="cls-37" d="M589.59,258.25l3.69,2.07,2-10.45-2.93-1.64.22-1.18a10.6,10.6,0,0,0,3.6.87l1.59.89-2.38,12.67,3.33,1.87-.29,1.51-9.08-5.1Z"/><path class="cls-37" d="M602.13,265.29l3.68,2.07,2-10.45-2.92-1.64.22-1.18a10.54,10.54,0,0,0,3.6.87l1.59.89-2.39,12.67,3.33,1.87-.28,1.51-9.08-5.1Z"/><path class="cls-37" d="M614.85,266.21c.89-4.75,3.32-6.22,6.55-4.4s4.66,5.44,3.76,10.2-3.33,6.31-6.54,4.51S614,271,614.85,266.21Zm8.3,4.66c.78-4.15-.16-6.55-2-7.6s-3.47-.08-4.26,4.08.15,6.64,2,7.7S622.36,275,623.15,270.87Z"/><path class="cls-37" d="M627.21,279.37l3.68,2.07,2-10.45-2.93-1.64.22-1.18a10.64,10.64,0,0,0,3.61.87l1.59.89L633,282.6l3.33,1.87L636,286l-9.08-5.1Z"/><path class="cls-37" d="M639.92,280.29c.9-4.75,3.32-6.22,6.55-4.4s4.67,5.44,3.77,10.2-3.34,6.31-6.54,4.51S639,285.05,639.92,280.29Zm8.3,4.66c.78-4.15-.16-6.55-2-7.6s-3.47-.08-4.25,4.08.14,6.64,2,7.7S647.44,289.11,648.22,285Z"/><path class="cls-37" d="M652.46,287.33c.9-4.75,3.32-6.22,6.55-4.4s4.66,5.44,3.77,10.2-3.34,6.31-6.55,4.51S651.56,292.09,652.46,287.33Zm8.3,4.67c.78-4.16-.16-6.56-2-7.61s-3.47-.08-4.25,4.08.14,6.64,2,7.7S660,296.15,660.76,292Z"/><path class="cls-37" d="M664.82,300.49l3.68,2.07,2-10.44-2.93-1.65.23-1.17a10.73,10.73,0,0,0,3.6.86l1.59.9-2.39,12.66,3.33,1.87-.28,1.52-9.09-5.1Z"/><path class="cls-37" d="M584.57,284.92l3.68,2.07,2-10.44-2.93-1.65.22-1.18a10.59,10.59,0,0,0,3.61.87l1.59.9-2.39,12.66,3.33,1.87-.29,1.52-9.08-5.11Z"/><path class="cls-37" d="M597.28,285.85c.9-4.76,3.32-6.23,6.55-4.41s4.66,5.44,3.77,10.2-3.34,6.31-6.54,4.51S596.38,290.6,597.28,285.85Zm8.3,4.66c.78-4.16-.16-6.56-2-7.61s-3.47-.08-4.25,4.08.14,6.64,2,7.7S604.8,294.66,605.58,290.51Z"/><path class="cls-37" d="M609.82,292.89c.89-4.76,3.32-6.23,6.55-4.41s4.66,5.44,3.77,10.2-3.34,6.31-6.55,4.51S608.92,297.64,609.82,292.89Zm8.3,4.66c.78-4.16-.16-6.56-2-7.6s-3.47-.09-4.25,4.07.14,6.64,2,7.7S617.33,301.7,618.12,297.55Z"/><path class="cls-37" d="M622.36,299.93c.89-4.76,3.32-6.22,6.54-4.41s4.67,5.45,3.77,10.2-3.33,6.31-6.54,4.51S621.46,304.68,622.36,299.93Zm8.3,4.66c.78-4.16-.16-6.56-2-7.6s-3.47-.09-4.26,4.07.15,6.64,2,7.7S629.87,308.74,630.66,304.59Z"/><path class="cls-37" d="M634.72,313.09l3.68,2.06,2-10.44-2.93-1.64.22-1.18a10.64,10.64,0,0,0,3.61.87l1.59.89-2.39,12.67,3.33,1.87-.29,1.51-9.08-5.1Z"/><path class="cls-37" d="M647.43,314c.9-4.76,3.32-6.22,6.55-4.41s4.67,5.45,3.77,10.2-3.34,6.31-6.54,4.51S646.53,318.76,647.43,314Zm8.3,4.66c.78-4.16-.16-6.55-2-7.6s-3.47-.08-4.25,4.07.14,6.64,2,7.71S655,322.82,655.73,318.67Z"/><path class="cls-37" d="M659.79,327.17l3.68,2.07,2-10.45-2.92-1.64.22-1.18a10.54,10.54,0,0,0,3.6.87l1.59.89-2.39,12.67,3.33,1.87-.28,1.51-9.08-5.1Z"/><path class="cls-37" d="M579.54,311.6l3.68,2.07,2-10.45-2.93-1.64.23-1.18a10.54,10.54,0,0,0,3.6.87l1.59.89-2.39,12.67,3.33,1.87-.28,1.51-9.09-5.1Z"/><path class="cls-37" d="M592.07,318.64l3.69,2.07,2-10.45-2.93-1.64.22-1.18a10.59,10.59,0,0,0,3.61.87l1.59.89-2.39,12.67,3.33,1.87-.29,1.51-9.08-5.1Z"/><path class="cls-37" d="M604.79,319.56c.9-4.76,3.32-6.22,6.55-4.41s4.66,5.45,3.77,10.2-3.34,6.31-6.54,4.51S603.89,324.32,604.79,319.56Zm8.3,4.66c.78-4.16-.16-6.55-2-7.6s-3.47-.08-4.25,4.07.14,6.65,2,7.71S612.31,328.38,613.09,324.22Z"/><path class="cls-37" d="M617.33,326.6c.89-4.76,3.32-6.22,6.55-4.41s4.66,5.45,3.77,10.2-3.34,6.31-6.55,4.51S616.43,331.36,617.33,326.6Zm8.3,4.66c.78-4.16-.16-6.55-2-7.6s-3.47-.08-4.26,4.07.15,6.65,2,7.71S624.84,335.42,625.63,331.26Z"/><path class="cls-37" d="M629.86,333.64c.9-4.76,3.32-6.22,6.55-4.41s4.67,5.45,3.77,10.2-3.33,6.32-6.54,4.52S629,338.4,629.86,333.64Zm8.31,4.66c.78-4.15-.16-6.55-2-7.6s-3.47-.08-4.26,4.07.15,6.65,2,7.71S637.38,342.46,638.17,338.3Z"/><path class="cls-37" d="M642.23,346.8l3.68,2.07,2-10.45L645,336.78l.22-1.18a10.64,10.64,0,0,0,3.61.87l1.59.89L648,350l3.33,1.87-.29,1.51-9.08-5.1Z"/><path class="cls-37" d="M654.94,347.72c.9-4.75,3.32-6.22,6.55-4.41s4.66,5.45,3.77,10.21-3.34,6.31-6.54,4.51S654,352.48,654.94,347.72Zm8.3,4.66c.78-4.15-.16-6.55-2-7.6s-3.47-.08-4.25,4.07.14,6.65,2,7.71S662.46,356.54,663.24,352.38Z"/><path class="cls-38" d="M612.3,213.3s-39.25,3.5-49.57-39.48c-17.39,13.09-34.68-.16-44.82-11.32l-9.08-11.76c-8.17,1.71-12.94,2.81-21.22,6.45l3.18,7.39,1,2.07c-29.49,42,.26,118.93,6.19,131,6.79,13.84,18.38,35.64,18.38,35.64s25.63.7,36.85-2.23S637.26,296.06,612.3,213.3Z"/><path class="cls-11" d="M591.08,219.76s-39.25,3.5-49.57-39.48c-27.07,20.38-53.9-23.09-53.9-23.09-55.81,33.92-17.67,133.07-10.87,146.91,4.65,9.47,11.55,22.68,15.44,30.07a10.53,10.53,0,0,0,9.33,5.64c8.34,0,22.78-.3,30.46-2.31C543.2,334.57,616,302.52,591.08,219.76Z"/><path class="cls-8" d="M573.64,228.34s-31.13,2.77-39.31-31.32c-21.47,16.16-42.75-18.31-42.75-18.31-44.27,26.9-14,105.54-8.63,116.52,2.91,5.91,6.86,14.26,9.89,20.69a15.16,15.16,0,0,0,15.29,8.62c6.36-.65,14-1.62,18.63-2.82C535.67,319.39,593.43,294,573.64,228.34Z"/><path class="cls-7" d="M573.64,228.34s-31.12,2.77-39.31-31.3l-31.81,127a15.24,15.24,0,0,0,5.61.47c6.36-.65,14-1.62,18.63-2.82C535.67,319.39,593.43,294,573.64,228.34Z"/><polyline class="cls-39" points="497.77 229.74 509.23 281.06 559.36 243.41"/><path class="cls-40" d="M126.44,559.47l-36.4-21c-3.52-2-3.07-5.61,1-8l34.11-19.7c4.07-2.34,10.26-2.6,13.78-.57l36.4,21c3.52,2,3.07,5.6-1,8l-34.11,19.7C136.16,561.24,130,561.5,126.44,559.47Z"/><path class="cls-40" d="M126.44,542.16l-36.4-21c-3.52-2-3.07-5.61,1-7.95l34.11-19.7c4.07-2.34,10.26-2.6,13.78-.57l36.4,21c3.52,2,3.07,5.61-1,7.95l-34.11,19.7C136.16,543.93,130,544.19,126.44,542.16Z"/><polygon class="cls-4" points="449.34 84.26 403.04 56.85 387.93 146 448.95 182.12 460.31 115.06 449.34 84.26"/><polygon class="cls-2" points="444.81 171.99 383.79 135.87 398.9 46.72 445.19 74.13 456.17 104.92 444.81 171.99"/><polygon class="cls-11" points="445.19 74.13 441.45 96.21 456.17 104.92 445.19 74.13"/><path class="cls-4" d="M407.51,94.46l-3.3-1.95c-1.41-.84-2.28-3.14-1.95-5.13h0c.34-2,1.77-2.94,3.17-2.1l3.31,2c1.4.84,2.28,3.14,1.94,5.13h0C410.35,94.35,408.92,95.29,407.51,94.46Z"/><path class="cls-4" d="M438.88,113,416.09,99.54c-1.4-.83-2.28-3.14-1.94-5.13h0c.34-2,1.76-2.93,3.17-2.1L440.1,105.8c1.41.83,2.28,3.14,1.95,5.12h0C441.71,112.91,440.28,113.86,438.88,113Z"/><path class="cls-4" d="M405,109.12l-3.31-2c-1.4-.83-2.28-3.14-1.94-5.12h0c.34-2,1.76-2.94,3.17-2.1l3.3,2c1.41.83,2.29,3.14,1.95,5.13h0C407.86,109,406.44,110,405,109.12Z"/><path class="cls-4" d="M436.39,127.68,413.61,114.2c-1.41-.83-2.28-3.14-1.95-5.13h0c.34-2,1.77-2.93,3.17-2.1l22.79,13.48c1.4.84,2.28,3.14,1.94,5.13h0C439.22,127.57,437.8,128.52,436.39,127.68Z"/><path class="cls-4" d="M402.54,123.78l-3.3-2c-1.41-.83-2.28-3.14-1.94-5.13h0c.33-2,1.76-2.93,3.17-2.1l3.3,2c1.41.83,2.28,3.14,1.94,5.13h0C405.38,123.66,404,124.61,402.54,123.78Z"/><path class="cls-4" d="M433.91,142.34l-22.78-13.48c-1.41-.84-2.29-3.14-1.95-5.13h0c.34-2,1.76-2.94,3.17-2.1l22.78,13.48c1.41.83,2.28,3.14,1.95,5.13h0C436.74,142.23,435.31,143.17,433.91,142.34Z"/><path class="cls-30" d="M445.79,153.43c2.17-8-1.19-18.11-7.5-22.68-2.91-2.1-5.93-2.65-8.56-1.86h0a8.24,8.24,0,0,0-1,.4l-6.31,2.64h3a13.56,13.56,0,0,0-2.42,4.95c-2.18,8,1.18,18.11,7.5,22.68a11.9,11.9,0,0,0,3.9,1.9l.4,1.71,4.39-1.79c.24-.08.48-.17.71-.27l.08,0h0C442.57,159.92,444.74,157.29,445.79,153.43Z"/><ellipse class="cls-41" cx="428.6" cy="147.52" rx="11.66" ry="16.92" transform="translate(-23.66 117.15) rotate(-15.15)"/><path class="cls-11" d="M419.45,139.33l3.16,14.33.45,2a3.23,3.23,0,0,0,4.7,1.91l8.31-5.75a3.2,3.2,0,1,0-3.23-5.52l-8.31,5.75,4.7,1.91-3.17-14.33-.45-2a3.21,3.21,0,0,0-3.93-2.23,3.26,3.26,0,0,0-2.23,3.93Z"/><path class="cls-32" d="M465.6,509.23c-15.26-9.15-40.24-9.57-55.8-.93s-15.8,23.07-.54,32.22,40,9.57,55.82,1.11C482.5,532.32,480.86,518.38,465.6,509.23Z"/><path class="cls-4" d="M477.6,503.63l-15-3.57c-14.93-7.33-36.91-7.41-51.53,0L398,502.36l0,15c.19,5.61,3.94,11.23,11.27,15.63,15.27,9.15,40,9.58,55.82,1.11,8.95-4.78,12.86-10.79,12.48-16.74Z"/><path class="cls-32" d="M465.6,486.43c-15.26-9.16-40.24-9.57-55.8-.93s-15.8,23.06-.54,32.21,40,9.58,55.82,1.11C482.5,509.52,480.86,495.58,465.6,486.43Z"/><path class="cls-4" d="M477.6,480.83l-15-3.57c-14.93-7.34-36.91-7.42-51.53,0L398,479.55l0,15c.19,5.61,3.94,11.23,11.27,15.63,15.27,9.15,40,9.57,55.82,1.11,8.95-4.78,12.86-10.79,12.48-16.74Z"/><path class="cls-2" d="M465.6,463.62c-15.26-9.15-40.24-9.56-55.8-.92s-15.8,23.06-.54,32.21,40,9.57,55.82,1.11C482.5,486.72,480.86,472.77,465.6,463.62Z"/><path class="cls-32" d="M406.54,500.44c0,1.24-.87,1.74-2,1.12a4.31,4.31,0,0,1-1.95-3.37c0-1.24.87-1.74,1.95-1.11A4.29,4.29,0,0,1,406.54,500.44Z"/><path class="cls-11" d="M413.12,504.66c0,1.24-.88,1.74-1.95,1.12a4.32,4.32,0,0,1-2-3.37c0-1.24.88-1.74,2-1.11A4.3,4.3,0,0,1,413.12,504.66Z"/><path class="cls-11" d="M419.69,508.88c0,1.24-.87,1.74-1.95,1.12a4.31,4.31,0,0,1-1.95-3.37c0-1.24.87-1.74,1.95-1.11A4.29,4.29,0,0,1,419.69,508.88Z"/><path class="cls-11" d="M406.54,522.78c0,1.24-.87,1.73-2,1.11a4.29,4.29,0,0,1-1.95-3.37c0-1.23.87-1.73,1.95-1.11A4.29,4.29,0,0,1,406.54,522.78Z"/><path class="cls-32" d="M413.12,527c0,1.24-.88,1.73-1.95,1.11a4.3,4.3,0,0,1-2-3.36c0-1.24.88-1.74,2-1.12A4.3,4.3,0,0,1,413.12,527Z"/><ellipse class="cls-11" cx="417.74" cy="530.09" rx="1.59" ry="2.75" transform="translate(-210.37 283.15) rotate(-30.3)"/><path class="cls-32" d="M406.54,545.11c0,1.24-.87,1.74-2,1.12a4.29,4.29,0,0,1-1.95-3.37c0-1.24.87-1.74,1.95-1.11A4.29,4.29,0,0,1,406.54,545.11Z"/><path class="cls-32" d="M413.12,549.33c0,1.24-.88,1.74-1.95,1.12a4.3,4.3,0,0,1-2-3.37c0-1.24.88-1.73,2-1.11A4.3,4.3,0,0,1,413.12,549.33Z"/><path class="cls-11" d="M419.69,553.55c0,1.24-.87,1.74-1.95,1.12a4.29,4.29,0,0,1-1.95-3.37c0-1.24.87-1.73,1.95-1.11A4.29,4.29,0,0,1,419.69,553.55Z"/><path class="cls-30" d="M129.27,450.13s-8.41-8.34-14.64-1c-7.61,9-22,4.68-22,4.68s2.11,4.2,6.56,4.33c0,0-8-1-8-1.15s1.6,3.89,9.36,4.29,13.1.45,17.21-5.4C119.94,452.84,121.85,446.65,129.27,450.13Z"/><polygon class="cls-3" points="133.2 528.12 135.53 468.7 124.39 474.66 123 516.71 127.06 523.9 133.2 528.12"/><path class="cls-3" d="M129.4,488.61c8.25-4.41,15.2-15.56,15.51-24.91s-6.13-13.36-14.39-8.95-15.19,15.56-15.5,24.91S121.15,493,129.4,488.61Z"/><polygon class="cls-2" points="138.7 527.27 140.56 470.96 129.42 476.91 128.03 518.96 133.2 528.12 138.7 527.27"/><path class="cls-2" d="M134.43,490.86c8.25-4.4,15.2-15.56,15.5-24.91S143.8,452.6,135.55,457s-15.19,15.56-15.5,24.91S126.18,495.27,134.43,490.86Z"/><path class="cls-3" d="M135.57,485.78c5.86-3.13,10.79-11,11-17.7s-4.35-9.49-10.22-6.36-10.79,11.06-11,17.7S129.7,488.91,135.57,485.78Z"/><path class="cls-32" d="M133.32,468.67c-1.6-1-1.5-4.05.23-6.82s4.42-4.21,6-3.22,1.49,4.05-.24,6.82S134.91,469.67,133.32,468.67Z"/><path class="cls-11" d="M132.31,467.21a7.35,7.35,0,0,1,1.24-5.36,7.19,7.19,0,0,1,4.37-3.49C138.64,461.44,134.53,467,132.31,467.21Z"/><rect class="cls-3" x="115.63" y="505.16" width="43.76" height="0.99" transform="translate(-371.27 631.11) rotate(-88.64)"/><rect class="cls-3" x="110.15" y="501.68" width="51.19" height="0.99" transform="matrix(0.01, -1, 1, 0.01, -367.94, 632.24)"/><rect class="cls-3" x="110.35" y="503.57" width="43.86" height="0.99" transform="matrix(0.01, -1, 1, 0.01, -373.46, 629.78)"/><path class="cls-42" d="M135.09,461s1.35-2.6-1.33-7.54c-3.49-6.44-9.62-4.28-7.32,2.93"/><path class="cls-43" d="M640.7,393.36c-11.66-7-30.75-7.31-42.64-.71s-12.07,17.63-.41,24.62,30.55,7.32,42.65.85C653.61,411,652.36,400.35,640.7,393.36Z"/><path class="cls-44" d="M635.42,391c-11.07-6.64-29.2-6.94-40.49-.67s-11.47,16.73-.39,23.38,29,6.94,40.51.8C647.69,407.71,646.5,397.59,635.42,391Z"/><path class="cls-45" d="M635,382.19c-11.08-6.64-29.21-6.94-40.5-.67s-11.46,16.74-.39,23.38,29,7,40.51.8C647.3,399,646.11,388.83,635,382.19Z"/><polyline class="cls-46" points="610.72 385.2 606.09 396.02 632.8 392.66"/><path class="cls-2" d="M714.6,279.29c1.17-5.74-.69-10.63-4.88-12.83l-64.8-34.13c-3.55-1.87-7.39,1.2-8.53,6.82l-10.25,50.34c-1.08,5.31.64,9.85,4.52,11.89l59.52,31.35c5.44,2.86,14.12-2.87,15.64-10.32Z"/><ellipse class="cls-11" cx="656.28" cy="274.28" rx="16.46" ry="22.23" transform="translate(-48.71 179.83) rotate(-15.05)"/><path class="cls-30" d="M659.57,288c1.42.8,3.71-.67,3.65-2.35a11.82,11.82,0,0,0-.62-3.82h0a6.47,6.47,0,0,0-1.12-1.44c-.39-.41-.89-1-1.38-1.57l-.49-.57h0l-1-1.2-.4-.64a1.3,1.3,0,0,1-.1-.15c0-.09,0-.18.05-.26l.3-1.61a2.83,2.83,0,0,0,1.28-1.64c.73.44,1.15-.6,1.4-1.34.17-.52.53-1.83,0-2.29,0-.08.07-.16.1-.23a7.25,7.25,0,0,0,.49-1.38,3.86,3.86,0,0,0,0-1.59,1,1,0,0,0-.12-.36,1.65,1.65,0,0,0,0-.59A6,6,0,0,0,660,261.3a4.43,4.43,0,0,0-2.8-1.21,1.7,1.7,0,0,0-2,1.31,1.37,1.37,0,0,0,0,.45c-.13-.05-.25,0-.35.14a2.86,2.86,0,0,0-.56,1.3,10.35,10.35,0,0,0-.12,1.59c0,.08,0,.18,0,.27-.7-.41-.89,1.15-.95,1.79-.06.79-.1,2,.56,2.41a6.38,6.38,0,0,0,0,1.07,4.64,4.64,0,0,0,.36,1.4v0l-.3,1.66c0,.05,0,.14,0,.19s-.15.06-.18.08l-.39.18h0l-.32,0h-.07a4.62,4.62,0,0,0-.65-.05h0c-.28,0-.56,0-.84,0-.5,0-1-.08-1.49-.05-1.23.08-3.13,1.21-4,3.92a2.52,2.52,0,0,0,1,3ZM661,271.38l-.07.19C661,271.51,661,271.45,661,271.38Z"/><ellipse class="cls-47" cx="656.61" cy="275.07" rx="21.28" ry="27.99" transform="translate(-47.18 167.96) rotate(-14.08)"/><path class="cls-11" d="M703.6,285.18l-14.55-7.09c-2.23-1.09-4.83.66-5.19,3.48h0a4.18,4.18,0,0,0,2.08,4.35L700.49,293c2.23,1.09,4.84-.66,5.2-3.48h0A4.18,4.18,0,0,0,703.6,285.18Z"/><path class="cls-11" d="M699.67,301.17l-14.55-7.09c-2.23-1.09-4.84.66-5.2,3.48h0a4.17,4.17,0,0,0,2.08,4.35L696.55,309c2.23,1.09,4.84-.66,5.2-3.48h0A4.18,4.18,0,0,0,699.67,301.17Z"/><path class="cls-2" d="M716.22,169.88c1.73-7.75-.77-14.5-6.55-17.71l-89.48-49.83c-4.9-2.73-10.29,1.25-12,8.84l-15.12,68c-1.59,7.18.72,13.44,6.08,16.42l82.19,45.77c7.5,4.17,19.67-3.18,21.91-13.24Z"/><path class="cls-48" d="M687.1,130.76l-32.32-17.68c-.94-.52-3.12-2-4.14-1.59l-.8.49-10.43,5.82,5.44,8.77-1.67,8.88c-1.07,5.68,1.67,12.31,6.08,14.72l15.48,8.47,5.91,11.23,10.62-5.48a5.37,5.37,0,0,0,.53-.35l0,0h0a8.94,8.94,0,0,0,3.22-5.67l4.2-22.38A5.15,5.15,0,0,0,687.1,130.76Z"/><path class="cls-11" d="M665.25,169.61,639.66,156.8c-4.37-2.19-7.07-8.63-6-14.31l4.2-22.39c.38-2,2-3,3.5-2.25l35.86,18a4.86,4.86,0,0,1,2.12,5.07l-4.2,22.38C674.07,168.93,669.62,171.79,665.25,169.61Z"/><path class="cls-11" d="M637.76,149.14h0c-.88.05-1.49-.55-1.34-1.33l4.21-22.38a2,2,0,0,1,1.87-1.51h0c.88,0,1.48.55,1.33,1.33l-4.2,22.38A2.07,2.07,0,0,1,637.76,149.14Z"/><path class="cls-7" d="M679.14,130.91a9.78,9.78,0,0,1-7.5.26c-2-.92-1.91-2.55.23-3.62a9.78,9.78,0,0,1,7.5-.26C681.38,128.21,681.28,129.83,679.14,130.91Z"/><path class="cls-35" d="M679.23,129.73a9.81,9.81,0,0,1-7.51.26c-2-.92-1.91-2.55.23-3.62a9.81,9.81,0,0,1,7.51-.26C681.47,127,681.36,128.65,679.23,129.73Z"/><path class="cls-7" d="M658.45,121.16a9.76,9.76,0,0,1-7.51.27c-2-.93-1.9-2.55.24-3.62a9.83,9.83,0,0,1,7.5-.27C660.69,118.47,660.59,120.09,658.45,121.16Z"/><path class="cls-35" d="M658.54,120a9.77,9.77,0,0,1-7.51.27c-2-.93-1.91-2.55.23-3.62a9.86,9.86,0,0,1,7.51-.27C660.78,117.29,660.67,118.91,658.54,120Z"/><path class="cls-7" d="M678.45,128.49a6.57,6.57,0,0,1-5,.18c-1.34-.62-1.27-1.71.16-2.43a6.57,6.57,0,0,1,5-.18C680,126.68,679.88,127.77,678.45,128.49Z"/><path class="cls-7" d="M657.38,118.75a6.52,6.52,0,0,1-5,.17c-1.34-.62-1.27-1.7.16-2.42a6.57,6.57,0,0,1,5-.18C658.88,116.94,658.81,118,657.38,118.75Z"/><path class="cls-7" d="M672.55,127.26,674.48,117c1-3.63-.39-8.77-3.94-10.47l-3.67-1.75a4.57,4.57,0,0,0-3.68-.26,4.78,4.78,0,0,0-2.2,1.89,5.65,5.65,0,0,0-.8,2l-1.6,8.73c-.57,1.53-7.68,1.79-7.11.26l2.29-10.34a13,13,0,0,1,7.4-7.52,12.45,12.45,0,0,1,10,.24l3.67,1.75c5.82,2.78,8.07,8,6.76,16.06l-2,9.81C679,128.86,672,128.79,672.55,127.26Z"/><path class="cls-36" d="M651.38,138.92c.52-2.6,3-3.73,5.64-2.53a6.65,6.65,0,0,1,3.76,6.88c-.52,2.59-3,3.73-5.64,2.53A6.65,6.65,0,0,1,651.38,138.92Z"/><path class="cls-36" d="M656,138.2l.34.1c1.29.34,2,2.28,1.57,4.31l-1.31,6.29c-.43,2-1.83,3.41-3.12,3.06l-.35-.09c-1.29-.34-2-2.28-1.57-4.31l1.32-6.29C653.27,139.24,654.68,137.86,656,138.2Z"/><path class="cls-7" d="M654.54,147.13l.87-4.16a6.14,6.14,0,0,1-1-4.48A3.62,3.62,0,0,1,656,136a3.62,3.62,0,0,0-4.63,2.88,6.1,6.1,0,0,0,1,4.48l-.87,4.16c-.42,2,.28,4,1.57,4.31l.35.09a2.09,2.09,0,0,0,2.06-.83A4.15,4.15,0,0,1,654.54,147.13Z"/><path class="cls-3" d="M676.61,222.11,613.37,187.3c-3.14-1.72-5-6.65-4.08-10.94l1.75-8.45c.89-4.29,4.19-6.39,7.33-4.66l63.23,34.8c3.14,1.73,5,6.65,4.09,10.95l-1.76,8.45C683,221.74,679.75,223.83,676.61,222.11Z"/><polygon class="cls-11" points="627.66 182.98 625.87 182.04 627.44 181.29 626.49 179.22 624.91 179.98 625.35 177.97 623.57 177.04 623.14 179.05 622.18 176.97 620.62 177.72 621.58 179.8 619.79 178.87 619.36 180.86 621.15 181.79 619.57 182.55 620.53 184.62 622.1 183.86 621.67 185.87 623.44 186.8 623.88 184.79 624.84 186.87 626.4 186.12 625.44 184.04 627.23 184.97 627.66 182.98"/><polygon class="cls-11" points="639.38 189.1 637.59 188.17 639.16 187.41 638.2 185.35 636.63 186.1 637.07 184.1 635.29 183.17 634.86 185.17 633.9 183.09 632.34 183.85 633.29 185.93 631.51 184.99 631.08 186.99 632.87 187.92 631.29 188.68 632.25 190.74 633.82 189.99 633.38 191.99 635.16 192.92 635.6 190.92 636.55 193 638.12 192.24 637.16 190.16 638.95 191.1 639.38 189.1"/><polygon class="cls-11" points="651.09 195.23 649.3 194.3 650.88 193.54 649.92 191.47 648.35 192.23 648.78 190.22 647.01 189.29 646.57 191.3 645.62 189.22 644.05 189.97 645.01 192.05 643.22 191.12 642.79 193.11 644.58 194.05 643.01 194.8 643.97 196.87 645.54 196.11 645.1 198.12 646.88 199.05 647.32 197.04 648.27 199.12 649.84 198.37 648.88 196.29 650.66 197.22 651.09 195.23"/><polygon class="cls-11" points="662.81 201.36 661.02 200.42 662.59 199.66 661.64 197.6 660.07 198.35 660.5 196.35 658.73 195.42 658.29 197.43 657.33 195.35 655.77 196.1 656.73 198.18 654.94 197.24 654.51 199.24 656.3 200.17 654.73 200.93 655.68 203 657.26 202.24 656.82 204.24 658.6 205.17 659.03 203.17 659.99 205.25 661.55 204.5 660.59 202.41 662.38 203.35 662.81 201.36"/><polygon class="cls-11" points="674.53 207.48 672.74 206.55 674.31 205.79 673.36 203.72 671.79 204.48 672.22 202.48 670.45 201.55 670.01 203.55 669.05 201.47 667.49 202.22 668.45 204.3 666.66 203.37 666.23 205.36 668.02 206.3 666.45 207.06 667.4 209.12 668.98 208.36 668.54 210.37 670.32 211.3 670.75 209.29 671.71 211.37 673.27 210.62 672.31 208.54 674.1 209.48 674.53 207.48"/></g></g></svg>